<?xml version="1.0" encoding="utf-8"?>
<!-- Generator: Adobe Illustrator 19.1.0, SVG Export Plug-In . SVG Version: 6.00 Build 0)  -->
<svg version="1.1" id="Layer_1" xmlns="http://www.w3.org/2000/svg" xmlns:xlink="http://www.w3.org/1999/xlink" x="0px" y="0px"
	 viewBox="0 0 1280 2656.6" style="enable-background:new 0 0 1280 2656.6;" xml:space="preserve">
<style type="text/css">
	.st0{opacity:0.25;clip-path:url(#SVGID_2_);}
	.st1{fill:none;stroke:#FFFFFF;stroke-width:1.9878;stroke-miterlimit:10;}
	.st2{opacity:0.35;}
	.st3{fill:#FFFFFF;}
</style>
<g>
	<g>
		<defs>
			<rect id="SVGID_1_" x="-0.1" y="-0.2" width="1280.2" height="2657"/>
		</defs>
		<clipPath id="SVGID_2_">
			<use xlink:href="#SVGID_1_"  style="overflow:visible;"/>
		</clipPath>
		<g class="st0">
			<g>
				<polygon class="st1" points="212.4,281.1 235.3,186.9 75.1,160.3 55,242.8 				"/>
				
					<rect x="-46" y="269.3" transform="matrix(0.2366 -0.9716 0.9716 0.2366 -295.9987 209.6785)" class="st1" width="62.8" height="47.8"/>
				<polygon class="st1" points="43.7,155 -3.6,147.2 -22.3,223.9 24.1,235.2 				"/>
				
					<rect x="37.3" y="294.1" transform="matrix(-0.9716 -0.2366 0.2366 -0.9716 156.0284 669.8235)" class="st1" width="161.9" height="62.8"/>
			</g>
			<polygon class="st1" points="830.2,1155.3 904.2,1481.5 987.5,1462.6 917.6,1154.3 			"/>
			<polygon class="st1" points="1031.4,1153 950.1,1153.9 1018.6,1455.5 1096.1,1437.9 			"/>
			<polygon class="st1" points="988.7,468.3 1036.5,491.1 1085.8,418.5 1025.9,390 			"/>
			<polygon class="st1" points="1046.1,295.2 764.4,161.3 741.8,231.2 1014.8,361 			"/>
			<polygon class="st1" points="735.1,251.8 708.2,335 968.3,458.7 1005.6,380.3 			"/>
			<polygon class="st1" points="1098,400.6 1139.4,339.6 1066.4,304.9 1035.1,370.7 			"/>
			<polygon class="st1" points="9.2,1189.8 -32.8,1157.5 9.5,1080.7 62,1121.1 			"/>
			<polygon class="st1" points="137.4,1060.1 384.6,1250.3 332.5,1302.2 92.9,1117.9 			"/>
			<polygon class="st1" points="317.2,1317.4 255.3,1379.2 27,1203.6 79.9,1134.8 			"/>
			<polygon class="st1" points="19.9,1061.7 55.5,997.1 119.5,1046.4 75.1,1104.1 			"/>
			
				<rect x="565.6" y="1802.1" transform="matrix(5.672860e-02 0.9984 -0.9984 5.672860e-02 2405.4561 1161.0245)" class="st1" width="45.4" height="102.9"/>
			
				<rect x="448.2" y="1823.5" transform="matrix(-5.672860e-02 -0.9984 0.9984 -5.672860e-02 -1359.606 2435.8359)" class="st1" width="45.4" height="73.4"/>
			
				<rect x="388.6" y="1959.9" transform="matrix(-5.672860e-02 -0.9984 0.9984 -5.672860e-02 -1487.5941 2587.7087)" class="st1" width="180" height="73.4"/>
			
				<rect x="506" y="1938.5" transform="matrix(5.672860e-02 0.9984 -0.9984 5.672860e-02 2548.9443 1281.9468)" class="st1" width="180" height="102.9"/>
			<polygon class="st1" points="443.6,2623.7 443.6,2618.8 443.6,2427.6 277.4,2457.1 277.4,2618.8 277.4,2623.7 277.4,2664.6 
				443.6,2664.6 			"/>
			<polygon class="st1" points="641.1,2623.7 641.1,2618.8 641.1,2392.5 476.4,2421.8 476.4,2618.8 476.4,2623.7 476.4,2664.6 
				641.1,2664.6 			"/>
			<rect x="277.4" y="-5" class="st1" width="166.2" height="126.5"/>
			<rect x="476.4" y="-5" class="st1" width="164.7" height="126.5"/>
			<path class="st1" d="M446.2,2393.8c0,0-77-4.6-60.1-43.4c16.8-38.8,74.5,36.6,68.4,45.3s-46.8-52.4-17.9-75
				c28.9-22.6,53,53.1,32.4,68.4c-20.6,15.3-9.7-51.4,13.7-64C506,2312.7,536.1,2362.2,446.2,2393.8z"/>
			
				<rect x="1339.2" y="2097.6" transform="matrix(5.672860e-02 0.9984 -0.9984 5.672860e-02 3430.2214 667.4403)" class="st1" width="45.4" height="102.9"/>
			
				<rect x="1221.8" y="2119" transform="matrix(-5.672860e-02 -0.9984 0.9984 -5.672860e-02 -837.1802 3520.4817)" class="st1" width="45.4" height="73.4"/>
			
				<rect x="1162.2" y="2255.4" transform="matrix(-5.672860e-02 -0.9984 0.9984 -5.672860e-02 -965.1683 3672.3545)" class="st1" width="180" height="73.4"/>
			
				<rect x="1279.6" y="2234" transform="matrix(5.672860e-02 0.9984 -0.9984 5.672860e-02 3573.7097 788.3625)" class="st1" width="180" height="102.9"/>
			<g>
				<path class="st1" d="M433.5,296.4c0,0-73.3-24-47.2-57.2s62.8,54.3,54.6,61.2c-8.1,6.9-32-62.6,1.7-77.1s37.8,64.8,14,74.4
					s3.7-52.2,29.5-58.4C511.9,233.1,528.4,288.6,433.5,296.4z"/>
				<path class="st1" d="M896.8,716.4c0,0-73.3-24-47.2-57.2c26.1-33.2,62.8,54.3,54.6,61.2c-8.1,6.9-32-62.6,1.7-77.1
					s37.8,64.8,14,74.4s3.7-52.2,29.5-58.4S991.7,708.5,896.8,716.4z"/>
				<path class="st1" d="M162.6,1541.7c0,0,66.6-38.8,34.1-65.8s-50,66.2-40.6,71.3c9.4,5.1,18.2-67.9-17.8-75s-23.4,71.3,1.9,75.7
					c25.3,4.4-14.5-50.3-41.1-50.9S68.1,1553.9,162.6,1541.7z"/>
				<path class="st1" d="M893.8,1648.7c0,0-77-4.6-60.1-43.4c16.8-38.8,74.5,36.6,68.4,45.3c-6.1,8.8-46.8-52.4-17.9-75
					c28.9-22.6,53,53.1,32.4,68.4c-20.6,15.3-9.7-51.4,13.7-64S983.6,1617,893.8,1648.7z"/>
				<path class="st1" d="M569,1319.9c0,0-73.3-24-47.2-57.2c26.1-33.2,62.8,54.3,54.6,61.2c-8.1,6.9-32-62.6,1.7-77.1
					c33.7-14.5,37.8,64.8,14,74.4c-23.8,9.6,3.7-52.2,29.5-58.4C647.5,1256.6,664,1312.1,569,1319.9z"/>
				<path class="st1" d="M1250,561.1c0,0-73.3-24-47.2-57.2c26.1-33.2,62.8,54.3,54.6,61.2c-8.1,6.9-32-62.6,1.7-77.1
					c33.7-14.5,37.8,64.8,14,74.4c-23.8,9.6,3.7-52.2,29.5-58.4C1328.5,497.8,1344.9,553.3,1250,561.1z"/>
				<path class="st1" d="M1290.9,1675.6c0,0-73.3-24-47.2-57.2c26.1-33.2,62.8,54.3,54.6,61.2c-8.1,6.9-32-62.6,1.7-77.1
					c33.7-14.5,37.8,64.8,14,74.4c-23.8,9.6,3.7-52.2,29.5-58.4C1369.3,1612.3,1385.8,1667.8,1290.9,1675.6z"/>
			</g>
			<g class="st2">
				<path class="st3" d="M121,50.6C62.3,43.9,59.5,126,59.5,126C106.8,126.3,179.7,57.3,121,50.6z M66.1,120.5c0,0,2.1-61.4,46-56.4
					C156,69.1,101.5,120.7,66.1,120.5z"/>
				<path class="st3" d="M-0.8,63.6c-47.6,45,56.6,63.6,56.6,63.6S46.7,18.6-0.8,63.6z M3.8,65c35.6-33.6,46.7,55.3,46.7,55.3
					S-31.7,98.6,3.8,65z"/>
				<g>
					<polygon class="st3" points="767.1,1417.1 763.7,1320.2 602.3,1338 605.3,1422.8 					"/>
					
						<rect x="520.5" y="1466.4" transform="matrix(-3.563151e-02 -0.9994 0.9994 -3.563151e-02 -917.6819 2094.9805)" class="st3" width="62.8" height="47.8"/>
					<polygon class="st3" points="570.6,1341.5 522.9,1346.7 525.8,1425.7 573.5,1424 					"/>
					
						<rect x="607.6" y="1454" transform="matrix(-0.9994 3.563151e-02 -3.563151e-02 -0.9994 1429.5587 2945.3113)" class="st3" width="161.9" height="62.8"/>
				</g>
				<polygon class="st3" points="338.5,304.2 400.3,633 484.3,617.2 425.9,306.5 				"/>
				<polygon class="st3" points="539.8,309.5 458.5,307.3 515.6,611.3 593.7,596.6 				"/>
				<g>
					<polygon class="st3" points="76.4,637.7 -33.2,689.8 22.1,770.4 117.8,724.9 					"/>
					<polygon class="st3" points="30.5,782.6 80.7,855.7 161.7,817.2 124.1,738.1 					"/>
					<polygon class="st3" points="233.3,670 203.2,577.4 89.6,631.4 131,718.6 					"/>
					<polygon class="st3" points="174.9,811 265.2,768.1 237.8,684 137.3,731.8 					"/>
				</g>
				<polygon class="st3" points="1038.9,2240.6 1085.1,2214.6 1054.3,2132.5 996.5,2165 				"/>
				<polygon class="st3" points="930.7,2093.8 658.7,2246.4 702.8,2305.2 966.4,2157.3 				"/>
				<polygon class="st3" points="715.7,2322.5 768.1,2392.5 1019.3,2251.6 976.8,2176 				"/>
				<polygon class="st3" points="1046.7,2112.2 1020.8,2043.2 950.3,2082.7 986,2146.3 				"/>
				<g>
					<polygon class="st3" points="724.8,858 724.8,861 724.8,959.2 891,959.2 891,861 891,858 891,740.3 724.8,758.4 					"/>
					<polygon class="st3" points="923.8,736.7 923.8,858 923.8,861 923.8,959.2 1088.6,959.2 1088.6,861 1088.6,858 1088.6,718.7 
											"/>
				</g>
				<g>
					<polygon class="st3" points="360.4,1644.1 361,1647.1 381.6,1743.1 219.1,1777.9 198.5,1681.9 197.9,1679 173.2,1563.8 
						339.5,1546.8 					"/>
					<polygon class="st3" points="140.4,1567.2 165.8,1685.9 166.5,1688.8 187,1784.8 26,1819.3 5.4,1723.4 4.8,1720.4 
						-24.5,1584.1 					"/>
				</g>
				<g>
					<polygon class="st3" points="763.5,1829.4 764.2,1832.4 789.2,1927.3 949.9,1885.1 925,1790.1 924.2,1787.2 894.3,1673.3 
						738.2,1733.1 					"/>
					<polygon class="st3" points="925.1,1661.5 955.9,1778.9 956.7,1781.8 981.7,1876.7 1141,1834.9 1116,1739.9 1115.3,1737 
						1079.9,1602.2 					"/>
				</g>
				
					<rect x="532.6" y="823.9" transform="matrix(-0.1903 0.9817 -0.9817 -0.1903 1520.3256 496.7619)" class="st3" width="45.4" height="102.9"/>
				
					<rect x="417.2" y="816.3" transform="matrix(0.1903 -0.9817 0.9817 0.1903 -481.2389 1122.4706)" class="st3" width="45.4" height="73.4"/>
				
					<rect x="323.8" y="950.4" transform="matrix(0.1903 -0.9817 0.9817 0.1903 -633.9594 1205.549)" class="st3" width="180" height="73.4"/>
				
					<rect x="439.3" y="958" transform="matrix(-0.1903 0.9817 -0.9817 -0.1903 1621.053 681.9261)" class="st3" width="180" height="102.9"/>
				<path class="st3" d="M601.1,791.7c-48.9-33.1-89.4,38.4-89.4,38.4C553.4,852.2,650,824.8,601.1,791.7z M520.1,828.2
					c0,0,30.3-53.5,66.8-28.7C623.5,824.3,551.3,844.8,520.1,828.2z"/>
				<path class="st3" d="M450.2,752.9c-54.9,35.6,44.2,72.7,44.2,72.7S505.1,717.2,450.2,752.9z M454.5,755
					c41.1-26.7,35.9,62.8,35.9,62.8S413.4,781.7,454.5,755z"/>
				<path class="st3" d="M542.7,733.9c-44.6-15.4-37.6,86.8-37.6,86.8S587.3,749.3,542.7,733.9z M543.4,737.3
					c33.4,11.5-35.6,77.7-35.6,77.7S510,725.8,543.4,737.3z"/>
				<path class="st3" d="M612.1,1761.2c-55.6-20.1-77.2,59.1-77.2,59.1C580.8,1831.6,667.7,1781.3,612.1,1761.2z M542.6,1816.5
					c0,0,16.2-59.3,57.7-44.2C641.9,1787.3,576.9,1824.9,542.6,1816.5z"/>
				<path class="st3" d="M456.3,1760.6c-44.5,48,60.7,59.7,60.7,59.7S500.7,1712.6,456.3,1760.6z M461,1761.7
					c33.3-35.9,50.3,52.1,50.3,52.1S427.8,1797.6,461,1761.7z"/>
				<path class="st3" d="M541.3,1719.5c-47.1-4-15.1,93.3-15.1,93.3S588.4,1723.4,541.3,1719.5z M542.8,1722.6
					c35.2,3-15.4,84-15.4,84S507.6,1719.7,542.8,1722.6z"/>
				<polygon class="st3" points="1155.1,568.9 1216.8,897.7 1300.8,881.9 1242.5,571.2 				"/>
				<polygon class="st3" points="1356.3,574.1 1275,572 1332.1,876 1410.2,861.3 				"/>
				
					<rect x="1334.8" y="1085.1" transform="matrix(-0.1903 0.9817 -0.9817 -0.1903 2731.5164 20.1497)" class="st3" width="45.4" height="102.9"/>
				
					<rect x="1219.3" y="1077.4" transform="matrix(0.1903 -0.9817 0.9817 0.1903 -88.137 2121.4407)" class="st3" width="45.4" height="73.4"/>
				
					<rect x="1126" y="1211.6" transform="matrix(0.1903 -0.9817 0.9817 0.1903 -240.8574 2204.5193)" class="st3" width="180" height="73.4"/>
				
					<rect x="1241.4" y="1219.2" transform="matrix(-0.1903 0.9817 -0.9817 -0.1903 2832.2439 205.3139)" class="st3" width="180" height="102.9"/>
				<path class="st3" d="M1403.2,1052.9c-48.9-33.1-89.4,38.4-89.4,38.4C1355.6,1113.4,1452.1,1086,1403.2,1052.9z M1322.2,1089.4
					c0,0,30.3-53.5,66.8-28.7C1425.7,1085.5,1353.4,1106,1322.2,1089.4z"/>
				<path class="st3" d="M1252.3,1014c-54.9,35.6,44.2,72.7,44.2,72.7S1307.2,978.4,1252.3,1014z M1256.6,1016.2
					c41.1-26.7,35.9,62.8,35.9,62.8S1215.6,1042.9,1256.6,1016.2z"/>
				<path class="st3" d="M1344.8,995.1c-44.6-15.4-37.6,86.8-37.6,86.8S1389.5,1010.5,1344.8,995.1z M1345.5,998.5
					c33.4,11.5-35.6,77.7-35.6,77.7S1312.1,987,1345.5,998.5z"/>
				<path class="st3" d="M1385.7,2056.7c-55.6-20.1-77.2,59.1-77.2,59.1C1354.4,2127.1,1441.2,2076.8,1385.7,2056.7z M1316.2,2112
					c0,0,16.2-59.3,57.7-44.2C1415.5,2082.8,1350.5,2120.5,1316.2,2112z"/>
				<path class="st3" d="M1229.9,2056.1c-44.5,48,60.7,59.7,60.7,59.7S1274.3,2008.1,1229.9,2056.1z M1234.6,2057.2
					c33.3-35.9,50.3,52.1,50.3,52.1S1201.4,2093.1,1234.6,2057.2z"/>
				<path class="st3" d="M1314.9,2015c-47.1-4-15.1,93.3-15.1,93.3S1362,2019,1314.9,2015z M1316.4,2018.2c35.2,3-15.4,84-15.4,84
					S1281.2,2015.2,1316.4,2018.2z"/>
				<g>
					<g>
						<polygon class="st3" points="1489,1772.8 1485.5,1675.9 1324.1,1693.7 1327.2,1778.5 						"/>
						
							<rect x="1242.4" y="1822.1" transform="matrix(-3.563151e-02 -0.9994 0.9994 -3.563151e-02 -525.5535 3184.7681)" class="st3" width="62.8" height="47.8"/>
						<polygon class="st3" points="1292.4,1697.2 1244.8,1702.4 1247.6,1781.4 1295.4,1779.7 						"/>
						
							<rect x="1329.5" y="1809.7" transform="matrix(-0.9994 3.563151e-02 -3.563151e-02 -0.9994 2885.5273 3630.7549)" class="st3" width="161.9" height="62.8"/>
					</g>
				</g>
				<g>
					<polygon class="st3" points="39.4,2052.8 179.2,2356.6 256.9,2320.9 124.7,2033.7 					"/>
					<polygon class="st3" points="235.8,2008.9 156.4,2026.6 285.7,2307.6 358,2274.4 					"/>
				</g>
				
					<rect x="1043.5" y="2448.2" transform="matrix(-0.1903 0.9817 -0.9817 -0.1903 3723.1221 1928.5934)" class="st3" width="45.4" height="102.9"/>
				
					<rect x="928.1" y="2440.6" transform="matrix(0.1903 -0.9817 0.9817 0.1903 -1662.1901 2939.3008)" class="st3" width="45.4" height="73.4"/>
				<path class="st3" d="M1112,2416c-48.9-33.1-89.4,38.4-89.4,38.4C1064.3,2476.6,1160.9,2449.1,1112,2416z M1031,2452.6
					c0,0,30.3-53.5,66.8-28.7C1134.5,2448.7,1062.2,2469.2,1031,2452.6z"/>
				<path class="st3" d="M961.1,2377.2c-54.9,35.6,44.2,72.7,44.2,72.7S1016,2341.5,961.1,2377.2z M965.4,2379.4
					c41.1-26.7,35.9,62.8,35.9,62.8S924.3,2406,965.4,2379.4z"/>
				<path class="st3" d="M1053.6,2358.2c-44.6-15.4-37.6,86.8-37.6,86.8S1098.3,2373.6,1053.6,2358.2z M1054.3,2361.7
					c33.4,11.5-35.6,77.7-35.6,77.7S1020.9,2350.1,1054.3,2361.7z"/>
				<polygon class="st3" points="977.9,2530 905.9,2516.1 878.6,2656.6 953.4,2656.6 				"/>
				<polygon class="st3" points="1107.9,2555.2 1006.9,2535.6 983.4,2656.6 1088.2,2656.6 				"/>
				<polygon class="st3" points="943.7,50.2 953.4,0 878.6,0 871.6,36.2 				"/>
				<polygon class="st3" points="1073.6,75.4 1088.2,0 983.4,0 972.6,55.8 				"/>
			</g>
			<g>
				<g>
					<path class="st1" d="M930.2,1128.7c0,0-18.7-18.5,9.2-19.9s-18.6,29.2-15.4-13.2c3.3-42.4,33.1-13.4,24.2-0.1
						s-39.4-7.1-32.8-22"/>
					<path class="st1" d="M917.5,1127.6c0,0-30.5,0.3-23.5-15.2s21.4,24-1,18.2c-22.4-5.8-36-14.2-29.3-21.7s17.9,17.4,0.1,18.9"/>
					<path class="st1" d="M878.9,1067.9c0,0,30,12.4,10.8,27.1s-5.5-36,19.2,6.1c0,0,4.7,9.7,6.7,18.1"/>
					<path class="st1" d="M942.1,1131c0,0,27.1-26.3,30.4-17.7s-5.8,17.8-10.6,11.3c-4.7-6.5-10-19.5,5.2-23.7s18.6-5.3,18.6,6.2
						s-25.9-3.9-16.7-13.8"/>
				</g>
				<g>
					<path class="st1" d="M85,621.7c0,0-24.8-8.8-0.2-21.9c24.6-13.1-4.4,34.4-19.5-5.4s24.2-26.2,21.9-10.4
						c-2.4,15.8-38.7,10.4-39.1-5.9"/>
					<path class="st1" d="M73,626.1c0,0-27.5,13.3-27.8-3.7s29.6,12.6,6.9,16.9c-22.8,4.3-38.7,2.5-35.8-7.2
						c2.9-9.7,23.6,8.1,8.1,17.1"/>
					<path class="st1" d="M12.7,588.5c0,0,32.4-1.6,21.3,20c-11.1,21.6-20.3-30.3,19.9-2.7c0,0,8.4,6.8,13.8,13.5"/>
					<path class="st1" d="M96.7,618.7c0,0,13.3-35.4,20-29c6.7,6.4,2.3,18.6-4.7,14.7s-17.3-13.3-5.4-23.6s14.6-12.7,19.5-2.4
						c4.9,10.4-25.1,7.5-20.9-5.4"/>
				</g>
				<g>
					<path class="st1" d="M1060.5,286.7c0,0-8.8-24.7,16.9-14s-29.4,18.3-8.1-18.5s35.6,2.3,21.9,10.4
						c-13.7,8.1-32.5-23.4-20.1-34.1"/>
					<path class="st1" d="M1049.6,280.2c0,0-27.7-12.9-14.6-23.9c13-11,9,30.9-8.8,16c-17.7-14.9-26.4-28.4-17-32.2
						c9.3-3.8,8.7,23.4-8.1,17.1"/>
					<path class="st1" d="M1040.5,209.7c0,0,21.7,24.1-2,29.1s10.6-34.9,14.6,13.8c0,0,0,10.8-1.8,19.2"/>
					<path class="st1" d="M1070.2,293.9c0,0,35.8-12,35.1-2.8c-0.7,9.2-13,13.5-14.4,5.6c-1.5-7.9-0.6-21.9,14.9-19.1
						c15.6,2.8,19.1,3.3,14.1,13.6c-5,10.3-21.7-14.7-9.1-19.6"/>
				</g>
				<g>
					<path class="st1" d="M938,2068.7c0,0-25.3-7.1-1.7-21.8c23.6-14.8-2,34.6-19.8-4.1s22.4-27.8,21.1-11.9
						c-1.3,15.9-37.9,13-39.4-3.3"/>
					<path class="st1" d="M926.4,2073.9c0,0-26.5,15.1-27.9-1.8c-1.4-16.9,30.4,10.5,8,16.4c-22.4,5.9-38.4,5.1-36.2-4.7
						s24.1,6.5,9.2,16.5"/>
					<path class="st1" d="M863.6,2040.5c0,0,32.2-3.8,22.6,18.5c-9.6,22.3-22.3-28.8,19.7-4c0,0,8.8,6.2,14.6,12.6"/>
					<path class="st1" d="M949.5,2064.9c0,0,10.8-36.2,17.9-30.3c7.1,5.9,3.6,18.4-3.7,15c-7.3-3.4-18.2-12.1-7-23.2
						c11.3-11.1,13.7-13.7,19.3-3.7c5.6,10-24.5,9.2-21.3-3.9"/>
				</g>
				<g>
					<path class="st1" d="M133.8,1034.2c0,0,26.1-3.4,4.8-21.4c-21.2-18-3,34.5,20.2-1.2c23.2-35.7-18.2-30.7-19.2-14.8
						c-1,15.9,35.6,18.3,39.5,2.4"/>
					<path class="st1" d="M144.5,1041.1c0,0,24.1,18.8,27.9,2.2c3.9-16.6-31.6,6-10.3,15.1c21.3,9,37.3,10.6,36.5,0.5
						c-0.8-10.1-24.8,2.9-11.5,15"/>
					<path class="st1" d="M211.5,1017.1c0,0-31.3-8.4-25,15c6.3,23.4,26.2-25.3-18.9-6.8c0,0-9.6,4.9-16.3,10.3"/>
					<path class="st1" d="M122.9,1028.9c0,0-5.5-37.4-13.4-32.6s-6.2,17.7,1.5,15.4s19.8-9.4,10.2-22c-9.5-12.6-11.6-15.5-18.5-6.4
						s23,12.6,21.6-0.8"/>
				</g>
				<path class="st1" d="M129.3,2007.3c0,0,15.5-21.2-12.2-18.2c-27.7,3.1,23,25.9,13-15.5c-10-41.3-34.8-7.9-23.9,3.8
					c10.9,11.7,37.8-13.3,28.9-27"/>
				<path class="st1" d="M141.6,2004.2c0,0,30.2-4.6,20.8-18.8c-9.4-14.2-17.3,27.1,3.9,17.8s33.3-19.8,25.4-26.1
					c-7.9-6.3-14.9,20,3,18.7"/>
				<path class="st1" d="M170.2,1939.1c0,0-27.6,17-6.3,28.5s-0.4-36.5-17.9,9.1c0,0-3,10.4-3.7,19"/>
				<path class="st1" d="M118,2011.5c0,0-31-21.7-32.9-12.6c-1.9,9,8.6,16.7,12.2,9.5s6.8-20.8-9-22.5s-19.2-2.2-17.4,9.1
					c1.8,11.3,24.9-8,14.2-16.3"/>
			</g>
		</g>
	</g>
</g>
</svg>
