<?xml version="1.0" encoding="utf-8"?>
<!-- Generator: Adobe Illustrator 19.1.0, SVG Export Plug-In . SVG Version: 6.00 Build 0)  -->
<svg version="1.1" id="Layer_1" xmlns="http://www.w3.org/2000/svg" xmlns:xlink="http://www.w3.org/1999/xlink" x="0px" y="0px"
	 viewBox="0 0 289.5 45" style="enable-background:new 0 0 289.5 45;" xml:space="preserve">
<style type="text/css">
	.st0{fill:#69E2D3;}
	.st1{fill:#FFFFFF;}
	.st2{fill:#E24444;}
	.st3{fill:none;stroke:#FFFFFF;stroke-width:0.6314;stroke-linecap:round;stroke-miterlimit:10;}
	.st4{fill:#FFFFFF;stroke:#E24444;stroke-width:0.6314;stroke-linecap:round;stroke-miterlimit:10;}
	.st5{fill:none;stroke:#E24444;stroke-linecap:round;stroke-miterlimit:10;}
	.st6{fill:#AAD852;}
	.st7{fill:#FF6A38;}
	.st8{fill:none;stroke:#FFFFFF;stroke-width:0.5493;stroke-linecap:round;stroke-miterlimit:10;}
	.st9{fill:#634689;}
	.st10{fill:#6493E8;}
	.st11{fill:#EAC93F;}
	.st12{fill:#FFFFFF;stroke:#EAC93F;stroke-width:0.6314;stroke-linecap:round;stroke-miterlimit:10;}
	.st13{fill:#999999;}
</style>
<g>
	<circle class="st0" cx="20" cy="22" r="15"/>
	<g>
		
			<rect x="21.5" y="17.3" transform="matrix(3.178368e-03 1 -1 3.178368e-03 42.7467 -2.7861)" class="st1" width="2.5" height="5.6"/>
		
			<rect x="15.2" y="18.1" transform="matrix(-3.178368e-03 -1 1 -3.178368e-03 -3.6205 36.5282)" class="st1" width="2.5" height="4"/>
		
			<rect x="11.5" y="25.5" transform="matrix(-3.178368e-03 -1 1 -3.178368e-03 -11.0023 43.9808)" class="st1" width="9.8" height="4"/>
		
			<rect x="17.9" y="24.7" transform="matrix(3.178368e-03 1 -1 3.178368e-03 50.1757 4.5723)" class="st1" width="9.8" height="5.6"/>
		<path class="st1" d="M24.3,14.1c-2.9-1.2-4.4,3-4.4,3C22.4,17.8,27.3,15.4,24.3,14.1z M20.4,16.9c0,0,1-3.2,3.3-2.2
			C25.9,15.6,22.2,17.5,20.4,16.9z"/>
		<path class="st1" d="M15.9,13.6C13.3,16.1,19,17,19,17S18.4,11.2,15.9,13.6z M16.1,13.7c1.9-1.8,2.6,3,2.6,3S14.2,15.6,16.1,13.7z
			"/>
		<path class="st1" d="M20.6,11.7c-2.5-0.4-1.1,5-1.1,5S23.2,12,20.6,11.7z M20.7,11.8c1.9,0.3-1.1,4.5-1.1,4.5S18.8,11.6,20.7,11.8
			z"/>
	</g>
</g>
<g>
	<circle class="st2" cx="54.2" cy="22" r="15"/>
</g>
<g>
	<g>
		
			<rect x="58.2" y="15.9" transform="matrix(-0.3106 0.9505 -0.9505 -0.3106 94.4601 -32.5919)" class="st1" width="1.8" height="4"/>
		
			<rect x="53.8" y="15.1" transform="matrix(0.3106 -0.9505 0.9505 0.3106 21.9746 63.3464)" class="st1" width="1.8" height="2.9"/>
		
			<rect x="49.3" y="20.8" transform="matrix(0.3106 -0.9505 0.9505 0.3106 15.2772 65.5274)" class="st1" width="7.1" height="2.9"/>
		
			<rect x="53.7" y="21.6" transform="matrix(-0.3106 0.9505 -0.9505 -0.3106 97.4673 -23.3576)" class="st1" width="7.1" height="4"/>
		<path class="st3" d="M60.5,14.8c-1.1-1-2.3,0.7-2.3,0.7C59.1,16.1,61.6,15.7,60.5,14.8z"/>
		<path class="st3" d="M55.7,13c-1.5,0.7,0.9,1.9,0.9,1.9S57.1,12.3,55.7,13z"/>
		<path class="st3" d="M58.8,12.4c-1.1-0.5-1.2,2-1.2,2S59.8,12.9,58.8,12.4z"/>
	</g>
	<path class="st4" d="M54.3,20.6L54.3,20.6h-6.1v10.1c0,0,0,1.6,1.7,2h4.4h0h4.4c1.7-0.4,1.7-2,1.7-2V20.6H54.3z"/>
	<line class="st5" x1="51.6" y1="24.2" x2="51.6" y2="30"/>
	<line class="st5" x1="54.3" y1="24.2" x2="54.3" y2="30"/>
	<line class="st5" x1="57" y1="24.2" x2="57" y2="30"/>
	<g>
		<path class="st4" d="M54.6,11.7c0.6,0.5,0.6,1.4,0.1,2l-7.1,8c-0.5,0.6-1.4,0.6-2,0.1l0,0c-0.6-0.5-0.6-1.4-0.1-2l7.1-8
			C53.1,11.2,54,11.1,54.6,11.7L54.6,11.7z"/>
		<path class="st4" d="M47.3,17.1c-0.9-0.8-1-2.2-0.2-3.1c0.8-0.9,2.2-1,3.1-0.2"/>
	</g>
</g>
<g>
	<g>
		<circle class="st6" cx="89.2" cy="22" r="15"/>
	</g>
	<g>
		<polygon class="st1" points="82.4,16.4 94.8,16.4 95.9,28.6 81.3,28.6 		"/>
		<path class="st3" d="M86.1,17.7v-3.8c0,0,0.1-2.5,2.5-2.5s2.5,2.5,2.5,2.5v3.8"/>
		<circle class="st6" cx="95.1" cy="27.4" r="4.1"/>
		<circle class="st3" cx="95.1" cy="27.4" r="3.4"/>
		<line class="st3" x1="95.1" y1="25.6" x2="95.1" y2="29.4"/>
		<line class="st3" x1="97.1" y1="27.5" x2="93.2" y2="27.5"/>
	</g>
</g>
<g>
	<g>
		<circle class="st7" cx="123.8" cy="22" r="15"/>
	</g>
	<g>
		<polygon class="st1" points="117.1,16.4 129.4,16.4 130.6,28.7 116,28.7 		"/>
		<path class="st3" d="M120.8,17.8V14c0,0,0.1-2.5,2.5-2.5c2.4,0,2.5,2.5,2.5,2.5v3.8"/>
		<circle class="st8" cx="120.8" cy="19" r="1"/>
		<circle class="st8" cx="125.7" cy="19" r="1"/>
		<circle class="st7" cx="129.8" cy="27.5" r="4.1"/>
		<circle class="st3" cx="129.8" cy="27.5" r="3.4"/>
		<line class="st3" x1="131.7" y1="27.5" x2="127.9" y2="27.5"/>
	</g>
</g>
<g>
	<circle class="st9" cx="159.2" cy="22" r="15"/>
</g>
<path class="st1" d="M159.2,13.8c-4.8,0-8.8,3.3-8.8,7.5c0,2.5,1.5,4.8,3.8,6.1l0,2.9l2.8-1.8c0.7,0.2,1.4,0.2,2.2,0.2
	c4.8,0,8.8-3.3,8.8-7.5S164.1,13.8,159.2,13.8z"/>
<path class="st9" d="M163.3,23l-1-0.6l0.9-0.5c0.1-0.1,0.2-0.3,0.1-0.4c-0.1-0.1-0.3-0.2-0.4-0.1l-1.2,0.7l-1.9-1.1l1.9-1.1l1.2,0.7
	c0,0,0.1,0,0.1,0c0.1,0,0.2,0,0.3-0.1c0.1-0.1,0-0.3-0.1-0.4l-0.9-0.5l1-0.6c0.1-0.1,0.2-0.3,0.1-0.4c-0.1-0.1-0.3-0.2-0.4-0.1
	l-1.1,0.6l0-1.1c0-0.2-0.1-0.3-0.3-0.3s-0.3,0.1-0.3,0.3l0,1.4l-1.9,1.1v-2.2l1.2-0.7c0.1-0.1,0.2-0.3,0.1-0.4
	c-0.1-0.1-0.3-0.2-0.4-0.1l-0.9,0.5v-1.2c0-0.2-0.1-0.3-0.3-0.3s-0.3,0.1-0.3,0.3v1.2l-0.9-0.5c-0.1-0.1-0.3,0-0.4,0.1
	c-0.1,0.1,0,0.3,0.1,0.4l1.2,0.7v2.2l-1.9-1.1l0-1.4c0-0.2-0.1-0.3-0.3-0.3h0c-0.2,0-0.3,0.1-0.3,0.3l0,1l-1-0.6
	c-0.1-0.1-0.3,0-0.4,0.1c-0.1,0.1,0,0.3,0.1,0.4l1,0.6l-0.9,0.5c-0.1,0.1-0.2,0.3-0.1,0.4c0.1,0.1,0.1,0.1,0.2,0.1
	c0.1,0,0.1,0,0.2,0l1.2-0.7l1.9,1.1l-1.9,1.1l-1.2-0.7c-0.1-0.1-0.3,0-0.4,0.1c-0.1,0.1,0,0.3,0.1,0.4l0.9,0.5l-1,0.6
	c-0.1,0.1-0.2,0.3-0.1,0.4c0.1,0.1,0.1,0.1,0.2,0.1c0,0,0.1,0,0.1,0l1-0.6l0,1c0,0.2,0.1,0.3,0.3,0.3h0c0.2,0,0.3-0.1,0.3-0.3l0-1.4
	l1.9-1.1v2.2l-1.2,0.7c-0.1,0.1-0.2,0.3-0.1,0.4c0.1,0.1,0.1,0.1,0.2,0.1c0.1,0,0.1,0,0.1,0l0.9-0.5v1.2c0,0.2,0.1,0.3,0.3,0.3
	s0.3-0.1,0.3-0.3v-1.2l0.9,0.5c0,0,0.1,0,0.1,0c0.1,0,0.2,0,0.3-0.1c0.1-0.1,0-0.3-0.1-0.4l-1.2-0.7v-2.2l1.9,1.1l0,1.4
	c0,0.2,0.1,0.3,0.3,0.3s0.3-0.1,0.3-0.3l0-1.1l1.1,0.6c0,0,0.1,0,0.2,0c0.1,0,0.2,0,0.2-0.1C163.5,23.3,163.5,23.1,163.3,23z"/>
<g>
	<circle class="st10" cx="195.6" cy="22" r="15"/>
	<path class="st1" d="M205.2,15.6c-0.4-0.4-1-0.4-1.4,0l-11.5,11.5l-5-5c-0.4-0.4-1-0.4-1.4,0s-0.4,1,0,1.4l5.6,5.6
		c0.2,0.2,0.5,0.3,0.7,0.3c0,0,0,0,0.1,0c0,0,0,0,0.1,0c0.3,0,0.5-0.1,0.7-0.3l12.1-12.1C205.6,16.7,205.6,16,205.2,15.6z"/>
</g>
<g>
	<circle class="st11" cx="232.9" cy="22" r="15"/>
</g>
<g>
	<path class="st1" d="M237.1,16.5c0.6-0.6,1.1-0.8,2.2-0.5c0.1-0.1,0.2-0.2,0.3-0.3c1.3-1.2,1.2-2.5,1.3-3.3
		c-0.8,0.1-3.5-0.1-4.8,1.1c-1.1,1.1-2.2,3.9-2.5,5l-1.4,2.1l0.8,0l1.1-1.8c0.9-0.2,3-1.1,4.4-2.2C238.3,16.5,237.4,16.4,237.1,16.5
		z M234.4,18.1c0.5-0.7,2.2-3.6,5.2-4.9C239.2,13.6,235.2,17.1,234.4,18.1c-0.1,0.1-0.1,0.2-0.1,0.2
		C234.3,18.2,234.3,18.1,234.4,18.1z"/>
	<path class="st1" d="M228.1,24.7v4.1c0,0.3,0.2,0.5,0.5,0.5h8.6c0.3,0,0.5-0.2,0.5-0.5v-4.1l0,0c0,0,0-1.2-1.2-1.5
		c-0.9-0.2-1.7-0.5-2.1-1h-3c-0.4,0.5-1.2,0.8-2.1,1C228.1,23.5,228.1,24.7,228.1,24.7L228.1,24.7z"/>
	<path class="st12" d="M233.8,19.6h-1.3h-1.8c-0.3,0-0.5,0.2-0.5,0.5v0.9c0,0.3,0.2,0.5,0.5,0.5h4.4c0.3,0,0.5-0.2,0.5-0.5v-0.9
		c0-0.3-0.2-0.5-0.5-0.5H233.8z"/>
</g>
<g>
	<circle class="st13" cx="270.4" cy="22" r="15"/>
</g>
<g>
	<path class="st1" d="M265.4,16.4c0,0-0.7,0.3-0.7,1.2c0,0-2-0.9,0-2.3s4.6,0.3,4.6,0.3l4.9,0.3c0,0,1.8-1.4,0.9,4.1
		c0,0-0.5,4.6,0.1,6.6c0,0-2,0.9-7.8-0.6l-0.4,0.4l0.5,0.3l-0.1,1.2l-1.8,0.2l-0.8-2.4l0.5-3.5l0.6-3.2l0.4-2.4L265.4,16.4z"/>
	<path class="st1" d="M266.6,28.4c-0.1,0-0.2,0-0.3,0c-0.4-0.1-0.8-0.3-1.1-0.6c-1-1.3-0.2-4.5,0.3-6.7c0.1-0.6,0.3-1.2,0.3-1.5
		c0-0.2,0-0.4,0.1-0.6c0.1-1.1,0.2-1.8-0.2-2.4c-0.1-0.1-0.2-0.2-0.2-0.2c-0.2,0-0.4,0.2-0.4,0.3c-0.1,0.5,0.6,0.9,0.6,0.9l-0.8,0
		c-0.6-0.1-1-0.4-1.2-0.9c-0.2-0.5,0-1,0.5-1.5c0.5-0.4,1.1-0.6,1.8-0.6c0.7,0,1.4,0.1,2.2,0.2c0.4,0.1,0.9,0.1,1.3,0.2
		c0.8,0.1,4.2,0.3,4.4,0.3c0,0,0,0,0.1,0c0.1,0,0.2,0,0.3,0c0.8,0,1.1,0.4,1.2,0.7c0,0,0,0.1,0.1,0.1c0.3,0.7,0.5,1.3-0.1,5.8
		c-0.4,3,0,4,0.3,4.3c0.1,0.1,0.3,0.2,0.3,0.2c0,0,0.1,0,0.1,0l0.1,0.5c0,0-0.1,0-0.2,0c-0.9,0.1-2,0.2-2.9,0.2h0
		c-1.3,0-3-0.1-4.5-0.7c-0.5-0.2-0.9-0.3-1.2-0.3c-0.1,0-0.1,0-0.1,0c0.1,0.1,0.2,0.1,0.2,0.2c0.2,0.2,0.2,0.5,0.2,0.8
		c0,0.3-0.1,0.6-0.3,0.8C267.4,28.2,267.1,28.4,266.6,28.4z M265.4,15.9c0.3,0,0.6,0.2,0.7,0.4c0.5,0.8,0.4,1.6,0.2,2.7
		c0,0.2,0,0.4-0.1,0.6c0,0.3-0.2,0.9-0.3,1.5c-0.4,1.9-1.2,5.1-0.4,6.2c0.2,0.2,0.4,0.4,0.7,0.4c0.1,0,0.2,0,0.2,0
		c0.2,0,0.4-0.1,0.6-0.2c0.1-0.1,0.2-0.3,0.2-0.4c0-0.3-0.2-0.6-0.4-0.6c-0.1,0-0.2,0-0.3,0.1L266,27l0.2-0.6c0,0,0.2-0.7,1.3-0.7
		c0.4,0,0.9,0.1,1.5,0.3c0.7,0.3,2.1,0.7,4.2,0.7c0.7,0,1.4,0,2-0.1c-0.6-0.7-0.7-2.3-0.3-4.6c0.6-4.3,0.3-5,0.1-5.5
		c0,0,0-0.1-0.1-0.1c-0.1-0.1-0.2-0.3-0.7-0.3c-0.1,0-0.2,0-0.3,0c0,0-0.1,0-0.1,0c0,0-3.6-0.2-4.5-0.3c-0.5-0.1-0.9-0.1-1.3-0.2
		c-0.8-0.2-1.5-0.2-2.1-0.2c-0.6,0-1.1,0.1-1.5,0.5c-0.3,0.3-0.4,0.6-0.4,0.9c0,0.1,0.1,0.3,0.3,0.3c0,0,0-0.1,0-0.2
		C264.4,16.3,264.9,15.9,265.4,15.9z"/>
	<g>
		<path class="st13" d="M268.2,19.2c-0.1,0-0.2,0-0.2-0.1c-0.1-0.1-0.2-0.1-0.2-0.1c-0.1,0-0.2,0.1-0.3,0.1c-0.1,0.1-0.2,0.1-0.4,0
			c-0.1-0.1-0.2-0.2-0.1-0.2c0,0,0.3-0.3,0.7-0.3c0.2,0,0.4,0,0.7,0.3c0.1,0.1,0,0.2-0.1,0.2C268.3,19.2,268.2,19.2,268.2,19.2z"/>
		<path class="st13" d="M268.6,19.4c-0.2,0-0.4,0-0.7-0.3c-0.1-0.1,0-0.2,0.1-0.2c0.1-0.1,0.3,0,0.4,0c0.1,0.1,0.2,0.1,0.2,0.1
			c0.1,0,0.2-0.1,0.3-0.1c0.1-0.1,0.2-0.1,0.4,0c0.1,0.1,0.2,0.2,0.1,0.2C269.2,19.1,269,19.4,268.6,19.4z"/>
		<path class="st13" d="M269.8,19.2c-0.1,0-0.2,0-0.2-0.1c-0.1-0.1-0.2-0.1-0.2-0.1c-0.1,0-0.2,0.1-0.3,0.1c-0.1,0.1-0.2,0.1-0.4,0
			c-0.1-0.1-0.2-0.2-0.1-0.2c0,0,0.3-0.3,0.7-0.3c0.2,0,0.4,0,0.7,0.3c0.1,0.1,0,0.2-0.1,0.2C269.9,19.2,269.9,19.2,269.8,19.2z"/>
		<path class="st13" d="M270.2,19.4c-0.2,0-0.4,0-0.7-0.3c-0.1-0.1,0-0.2,0.1-0.2c0.1-0.1,0.3,0,0.4,0c0.1,0.1,0.2,0.1,0.2,0.1
			c0.1,0,0.2-0.1,0.3-0.1c0.1-0.1,0.2-0.1,0.4,0c0.1,0.1,0.2,0.2,0.1,0.2C270.9,19.1,270.6,19.4,270.2,19.4z"/>
		<path class="st13" d="M271.5,19.2c-0.1,0-0.2,0-0.2-0.1c-0.1-0.1-0.2-0.1-0.2-0.1c-0.1,0-0.2,0.1-0.3,0.1c-0.1,0.1-0.2,0.1-0.4,0
			c-0.1-0.1-0.2-0.2-0.1-0.2c0,0,0.3-0.3,0.7-0.3c0.2,0,0.4,0,0.7,0.3c0.1,0.1,0,0.2-0.1,0.2C271.6,19.2,271.5,19.2,271.5,19.2z"/>
		<path class="st13" d="M271.9,19.4c-0.2,0-0.4,0-0.7-0.3c-0.1-0.1,0-0.2,0.1-0.2c0.1-0.1,0.3,0,0.4,0c0.1,0.1,0.2,0.1,0.2,0.1
			c0.1,0,0.2-0.1,0.3-0.1c0.1-0.1,0.2-0.1,0.4,0c0.1,0.1,0.2,0.2,0.1,0.2C272.6,19.1,272.3,19.4,271.9,19.4z"/>
		<path class="st13" d="M272.2,19.2c-0.1,0-0.1,0-0.1,0c-0.1-0.1-0.2-0.2-0.1-0.2c0,0,0.3-0.3,0.7-0.3c0.2,0,0.4,0,0.7,0.3
			c0.1,0.1,0,0.2-0.1,0.2c-0.1,0.1-0.3,0-0.4,0c-0.1-0.1-0.2-0.1-0.2-0.1c-0.1,0-0.2,0.1-0.3,0.1C272.4,19.2,272.3,19.2,272.2,19.2z
			"/>
		<path class="st13" d="M273.6,19.4c-0.2,0-0.4,0-0.7-0.3c-0.1-0.1,0-0.2,0.1-0.2c0.1-0.1,0.3,0,0.4,0c0.1,0.1,0.2,0.1,0.2,0.1
			c0.1,0,0.2-0.1,0.3-0.1c0.1-0.1,0.2-0.1,0.4,0c0.1,0.1,0.2,0.2,0.1,0.2C274.2,19.1,274,19.4,273.6,19.4z"/>
	</g>
	<g>
		<path class="st13" d="M268.2,21.3c-0.1,0-0.2,0-0.2-0.1c-0.1-0.1-0.2-0.1-0.2-0.1c-0.1,0-0.2,0.1-0.3,0.1c-0.1,0.1-0.2,0.1-0.4,0
			c-0.1-0.1-0.2-0.2-0.1-0.2c0,0,0.3-0.3,0.7-0.3c0.2,0,0.4,0,0.7,0.3c0.1,0.1,0,0.2-0.1,0.2C268.3,21.2,268.2,21.3,268.2,21.3z"/>
		<path class="st13" d="M268.6,21.4c-0.2,0-0.4,0-0.7-0.3c-0.1-0.1,0-0.2,0.1-0.2c0.1-0.1,0.3,0,0.4,0c0.1,0.1,0.2,0.1,0.2,0.1
			c0.1,0,0.2-0.1,0.3-0.1c0.1-0.1,0.2-0.1,0.4,0c0.1,0.1,0.2,0.2,0.1,0.2C269.2,21.2,269,21.4,268.6,21.4z"/>
		<path class="st13" d="M269.8,21.3c-0.1,0-0.2,0-0.2-0.1c-0.1-0.1-0.2-0.1-0.2-0.1c-0.1,0-0.2,0.1-0.3,0.1c-0.1,0.1-0.2,0.1-0.4,0
			c-0.1-0.1-0.2-0.2-0.1-0.2c0,0,0.3-0.3,0.7-0.3c0.2,0,0.4,0,0.7,0.3c0.1,0.1,0,0.2-0.1,0.2C269.9,21.2,269.9,21.3,269.8,21.3z"/>
		<path class="st13" d="M270.2,21.4c-0.2,0-0.4,0-0.7-0.3c-0.1-0.1,0-0.2,0.1-0.2c0.1-0.1,0.3,0,0.4,0c0.1,0.1,0.2,0.1,0.2,0.1
			c0.1,0,0.2-0.1,0.3-0.1c0.1-0.1,0.2-0.1,0.4,0c0.1,0.1,0.2,0.2,0.1,0.2C270.9,21.2,270.6,21.4,270.2,21.4z"/>
		<path class="st13" d="M271.5,21.3c-0.1,0-0.2,0-0.2-0.1c-0.1-0.1-0.2-0.1-0.2-0.1c-0.1,0-0.2,0.1-0.3,0.1c-0.1,0.1-0.2,0.1-0.4,0
			c-0.1-0.1-0.2-0.2-0.1-0.2c0,0,0.3-0.3,0.7-0.3c0.2,0,0.4,0,0.7,0.3c0.1,0.1,0,0.2-0.1,0.2C271.6,21.2,271.5,21.3,271.5,21.3z"/>
		<path class="st13" d="M271.9,21.4c-0.2,0-0.4,0-0.7-0.3c-0.1-0.1,0-0.2,0.1-0.2c0.1-0.1,0.3,0,0.4,0c0.1,0.1,0.2,0.1,0.2,0.1
			c0.1,0,0.2-0.1,0.3-0.1c0.1-0.1,0.2-0.1,0.4,0c0.1,0.1,0.2,0.2,0.1,0.2C272.6,21.2,272.3,21.4,271.9,21.4z"/>
		<path class="st13" d="M272.2,21.3c-0.1,0-0.1,0-0.1,0c-0.1-0.1-0.2-0.2-0.1-0.2c0,0,0.3-0.3,0.7-0.3c0.2,0,0.4,0,0.7,0.3
			c0.1,0.1,0,0.2-0.1,0.2c-0.1,0.1-0.3,0-0.4,0c-0.1-0.1-0.2-0.1-0.2-0.1c-0.1,0-0.2,0.1-0.3,0.1C272.4,21.2,272.3,21.3,272.2,21.3z
			"/>
		<path class="st13" d="M273.6,21.4c-0.2,0-0.4,0-0.7-0.3c-0.1-0.1,0-0.2,0.1-0.2c0.1-0.1,0.3,0,0.4,0c0.1,0.1,0.2,0.1,0.2,0.1
			c0.1,0,0.2-0.1,0.3-0.1c0.1-0.1,0.2-0.1,0.4,0c0.1,0.1,0.2,0.2,0.1,0.2C274.2,21.2,274,21.4,273.6,21.4z"/>
	</g>
	<g>
		<path class="st13" d="M268.2,23.3c-0.1,0-0.2,0-0.2-0.1c-0.1-0.1-0.2-0.1-0.2-0.1c-0.1,0-0.2,0.1-0.3,0.1c-0.1,0.1-0.2,0.1-0.4,0
			c-0.1-0.1-0.2-0.2-0.1-0.2c0,0,0.3-0.3,0.7-0.3c0.2,0,0.4,0,0.7,0.3c0.1,0.1,0,0.2-0.1,0.2C268.3,23.3,268.2,23.3,268.2,23.3z"/>
		<path class="st13" d="M268.6,23.4c-0.2,0-0.4,0-0.7-0.3c-0.1-0.1,0-0.2,0.1-0.2c0.1-0.1,0.3,0,0.4,0c0.1,0.1,0.2,0.1,0.2,0.1
			c0.1,0,0.2-0.1,0.3-0.1c0.1-0.1,0.2-0.1,0.4,0c0.1,0.1,0.2,0.2,0.1,0.2C269.2,23.2,269,23.4,268.6,23.4z"/>
		<path class="st13" d="M269.8,23.3c-0.1,0-0.2,0-0.2-0.1c-0.1-0.1-0.2-0.1-0.2-0.1c-0.1,0-0.2,0.1-0.3,0.1c-0.1,0.1-0.2,0.1-0.4,0
			c-0.1-0.1-0.2-0.2-0.1-0.2c0,0,0.3-0.3,0.7-0.3c0.2,0,0.4,0,0.7,0.3c0.1,0.1,0,0.2-0.1,0.2C269.9,23.3,269.9,23.3,269.8,23.3z"/>
		<path class="st13" d="M270.2,23.4c-0.2,0-0.4,0-0.7-0.3c-0.1-0.1,0-0.2,0.1-0.2c0.1-0.1,0.3,0,0.4,0c0.1,0.1,0.2,0.1,0.2,0.1
			c0.1,0,0.2-0.1,0.3-0.1c0.1-0.1,0.2-0.1,0.4,0c0.1,0.1,0.2,0.2,0.1,0.2C270.9,23.2,270.6,23.4,270.2,23.4z"/>
		<path class="st13" d="M271.5,23.3c-0.1,0-0.2,0-0.2-0.1c-0.1-0.1-0.2-0.1-0.2-0.1c-0.1,0-0.2,0.1-0.3,0.1c-0.1,0.1-0.2,0.1-0.4,0
			c-0.1-0.1-0.2-0.2-0.1-0.2c0,0,0.3-0.3,0.7-0.3c0.2,0,0.4,0,0.7,0.3c0.1,0.1,0,0.2-0.1,0.2C271.6,23.3,271.5,23.3,271.5,23.3z"/>
		<path class="st13" d="M271.9,23.4c-0.2,0-0.4,0-0.7-0.3c-0.1-0.1,0-0.2,0.1-0.2c0.1-0.1,0.3,0,0.4,0c0.1,0.1,0.2,0.1,0.2,0.1
			c0.1,0,0.2-0.1,0.3-0.1c0.1-0.1,0.2-0.1,0.4,0c0.1,0.1,0.2,0.2,0.1,0.2C272.6,23.2,272.3,23.4,271.9,23.4z"/>
		<path class="st13" d="M272.2,23.3c-0.1,0-0.1,0-0.1,0c-0.1-0.1-0.2-0.2-0.1-0.2c0,0,0.3-0.3,0.7-0.3c0.2,0,0.4,0,0.7,0.3
			c0.1,0.1,0,0.2-0.1,0.2c-0.1,0.1-0.3,0-0.4,0c-0.1-0.1-0.2-0.1-0.2-0.1c-0.1,0-0.2,0.1-0.3,0.1C272.4,23.3,272.3,23.3,272.2,23.3z
			"/>
		<path class="st13" d="M273.6,23.4c-0.2,0-0.4,0-0.7-0.3c-0.1-0.1,0-0.2,0.1-0.2c0.1-0.1,0.3,0,0.4,0c0.1,0.1,0.2,0.1,0.2,0.1
			c0.1,0,0.2-0.1,0.3-0.1c0.1-0.1,0.2-0.1,0.4,0c0.1,0.1,0.2,0.2,0.1,0.2C274.2,23.2,274,23.4,273.6,23.4z"/>
	</g>
	<path class="st1" d="M274.4,29.3c-3.1,0-8.2-0.9-8.4-1l0.1-0.3c0,0,0.4-0.3,1-0.2c2.1,0.4,6.9,1.1,8.8,0.7c0.8-0.2,0.8-0.5,0.7-0.7
		c-0.1-0.4-0.6-0.8-0.7-0.8c0,0,0,0,0,0l-0.1-0.7c0.6,0,1.4,0.7,1.5,1.4c0.1,0.3,0,1.1-1.3,1.4C275.6,29.3,275,29.3,274.4,29.3z"/>
</g>
</svg>
