<?xml version="1.0" encoding="utf-8"?>
<!-- Generator: Adobe Illustrator 19.2.1, SVG Export Plug-In . SVG Version: 6.00 Build 0)  -->
<svg version="1.1" id="Layer_1" xmlns="http://www.w3.org/2000/svg" xmlns:xlink="http://www.w3.org/1999/xlink" x="0px" y="0px"
	 viewBox="0 0 100 100" style="enable-background:new 0 0 100 100;" xml:space="preserve">
<style type="text/css">
	.st0{fill:#29ABE2;stroke:#000000;stroke-miterlimit:10;}
	.st1{fill:#FFFFFF;}
	.st2{stroke:#FFFFFF;stroke-width:0.2408;stroke-miterlimit:10;}
	.st3{stroke:#FFFFFF;stroke-width:0.515;stroke-miterlimit:10;}
	.st4{fill:#FFDC16;}
</style>
<rect x="-11.4" y="-24.9" class="st0" width="132" height="138"/>
<g>
	<path class="st1" d="M82.9,55.5c0.1-0.8,0.2-1.7,0.2-2.6c2.1-0.5,4.2-1.2,6.2-2c0-1.2-0.1-2.3-0.2-3.5c-2.2-0.7-4.3-1.3-6.5-1.7
		c-0.1-0.8-0.3-1.7-0.5-2.5s-0.4-1.7-0.7-2.5c1.8-1.3,3.5-2.6,5.1-4.1c-0.4-1.1-0.9-2.1-1.4-3.2c-2.2,0.1-4.5,0.4-6.6,0.7
		c-0.4-0.7-0.9-1.5-1.4-2.2s-1-1.4-1.5-2.1c1.2-1.8,2.3-3.7,3.3-5.7c-0.8-0.9-1.6-1.7-2.5-2.5c-2.1,0.9-4,1.9-5.9,3.1
		c-0.7-0.5-1.4-1-2.1-1.5s-1.4-0.9-2.2-1.3c0.5-2.1,0.8-4.3,1-6.5c-1-0.5-2.1-1-3.2-1.4c-1.6,1.6-3.1,3.3-4.4,5
		c-0.8-0.2-1.6-0.5-2.5-0.7c-0.8-0.2-1.7-0.4-2.5-0.5c-0.3-2.1-0.8-4.3-1.4-6.4c-1.2-0.1-2.3-0.2-3.5-0.2c-0.9,2.1-1.7,4.2-2.3,6.3
		c-0.9,0-1.7,0.2-2.6,0.3c-0.8,0.1-1.7,0.3-2.5,0.5c-1.1-1.9-2.3-3.7-3.6-5.5c-1.1,0.3-2.2,0.7-3.3,1.1c-0.1,2.2-0.1,4.5,0.1,6.7
		c-0.8,0.4-1.5,0.7-2.3,1.2c-0.8,0.4-1.5,0.9-2.2,1.3c-1.7-1.3-3.5-2.6-5.3-3.8c-0.9,0.7-1.8,1.4-2.7,2.2c0.7,2.1,1.6,4.2,2.5,6.2
		c-0.6,0.6-1.2,1.3-1.7,1.9c-0.5,0.7-1.1,1.3-1.5,2.1c-2.1-0.7-4.2-1.2-6.4-1.6c-0.6,1-1.2,2-1.7,3c1.4,1.7,3,3.4,4.6,4.8
		c-0.3,0.8-0.6,1.6-0.9,2.4c-0.3,0.8-0.5,1.6-0.7,2.5c-2.2,0.1-4.3,0.4-6.5,0.8c-0.2,1.1-0.4,2.3-0.5,3.4c2,1.1,4,2,6,2.9
		c0,0.9,0,1.7,0,2.6c0,0.9,0.1,1.7,0.2,2.6c-2,0.9-3.9,1.9-5.8,3.1c0.2,1.1,0.5,2.3,0.8,3.4c2.2,0.3,4.5,0.5,6.7,0.5
		c0.3,0.8,0.6,1.6,1,2.4c0.3,0.8,0.7,1.5,1.1,2.3c-1.5,1.5-2.9,3.2-4.3,5c0.6,1,1.3,1.9,2,2.9c2.2-0.5,4.3-1.2,6.4-2
		c0.5,0.7,1.2,1.3,1.8,1.9c0.6,0.6,1.2,1.2,1.9,1.7c-0.8,2-1.6,4-2.2,6.2c0.9,0.7,1.9,1.3,2.9,2c1.9-1.3,3.6-2.7,5.2-4.1
		c0.8,0.4,1.5,0.8,2.3,1.1c0.8,0.3,1.6,0.7,2.4,0.9c-0.1,2.2,0,4.3,0.2,6.5c1.1,0.3,2.2,0.6,3.4,0.8c1.3-1.8,2.4-3.8,3.4-5.7
		c0.9,0.1,1.7,0.2,2.6,0.2c0.9,0.1,1.7,0,2.6,0c0.7,2,1.6,4.1,2.5,6c1.2-0.1,2.3-0.3,3.4-0.5c0.5-2.2,0.9-4.4,1.1-6.6
		c0.8-0.2,1.6-0.5,2.5-0.7c0.8-0.3,1.6-0.6,2.4-0.9c1.4,1.6,2.9,3.2,4.5,4.7c1-0.5,2-1.1,3-1.7c-0.3-2.2-0.8-4.4-1.4-6.5
		c0.7-0.5,1.4-1,2-1.6c0.7-0.5,1.3-1.1,1.9-1.7c1.9,1,3.9,1.9,5.9,2.8c0.8-0.9,1.5-1.8,2.2-2.7c-1.1-2-2.3-3.8-3.6-5.6
		c0.5-0.7,0.9-1.5,1.3-2.2c0.4-0.8,0.8-1.5,1.1-2.3c2.2,0.3,4.3,0.4,6.5,0.4c0.4-1.1,0.8-2.2,1.1-3.3c-1.7-1.4-3.6-2.8-5.4-3.9
		C82.6,57.2,82.8,56.3,82.9,55.5z"/>
	<g>
		<g>
			<path class="st2" d="M69.1,64.8c-0.1,1.3-1.3,2.3-2.6,2.2l-35.1-2.7c-1.3-0.1-2.3-1.3-2.2-2.6l1.6-21.4c0.1-1.3,1.3-2.3,2.6-2.2
				l35.1,2.7c1.3,0.1,2.3,1.3,2.2,2.6L69.1,64.8z"/>
			<polygon points="49.1,39.4 52.6,26 54.4,40.6 			"/>
			<g>
				<circle class="st1" cx="44.2" cy="47.3" r="6.5"/>
				<circle cx="44.2" cy="48" r="4.8"/>
			</g>
			<g>
				<circle class="st1" cx="57.1" cy="48.3" r="6.5"/>
				<circle cx="57.1" cy="49.3" r="4.8"/>
			</g>
			<path d="M45.4,69.3c0,0.7-0.4,1.3-1.4,1.3l0,0c-0.9,0-1.4-0.6-1.4-1.3v-3.1c0-0.7,0.4-1.3,1.4-1.3l0,0c0.9,0,1.4,0.6,1.4,1.3
				V69.3z"/>
			<path class="st3" d="M39.4,74.7c0-2.5,2-4.6,4.6-4.6c2.5,0,4.6,2,4.6,4.6"/>
			<path d="M49.7,40.4l3.9,0.3c0,0,0-14.7-1.1-13.8C51.4,27.8,49.7,40.4,49.7,40.4z"/>
			<path d="M55,69.4c0,0.7-0.5,1.2-1.2,1.2h-1c-0.7,0-1.2-0.5-1.2-1.2V67c0-0.7,0.5-1.2,1.2-1.2h1c0.7,0,1.2,0.5,1.2,1.2V69.4z"/>
			<path class="st3" d="M48.9,74.7c0-2.5,2-4.6,4.6-4.6c2.5,0,4.6,2,4.6,4.6"/>
			<circle class="st4" cx="52.6" cy="26.2" r="2.9"/>
		</g>
	</g>
</g>
</svg>
