<?xml version="1.0" encoding="utf-8"?>
<!-- Generator: Adobe Illustrator 19.2.0, SVG Export Plug-In . SVG Version: 6.00 Build 0)  -->
<svg version="1.1" id="Layer_1" xmlns="http://www.w3.org/2000/svg" xmlns:xlink="http://www.w3.org/1999/xlink" x="0px" y="0px"
	 viewBox="0 0 25 31" style="enable-background:new 0 0 25 31;" xml:space="preserve">
<style type="text/css">
	.st0{fill:none;stroke:#011627;stroke-width:1.5;stroke-linecap:round;stroke-linejoin:round;stroke-miterlimit:10;}
</style>
<g>
	<path class="st0" d="M10.5,1.1c0,0,1.1,2.4-1.2,5.3c-2.7,3.5-2.1,6-2.1,6c0.4,2.9,3.1,5,6,4.6s4.8-3.1,4.6-6
		C17.4,1.4,10.5,1.1,10.5,1.1z"/>
	<path class="st0" d="M13.6,8.6c0,0-0.5,1.2,0.6,2.8c1.4,1.8,1.1,3.1,1.1,3.1c-0.2,1.5-1.6,2.6-3.1,2.4s-2.5-1.6-2.4-3.1
		C10.1,8.8,13.6,8.6,13.6,8.6z"/>
	<g>
		<g>
			<path class="st0" d="M6.5,17.8c-1.3-0.7-3-0.1-3.6,1.3c-0.7,1.3-0.1,3,1.3,3.6l2.1,1l6.2-3L6.5,17.8z"/>
			<path class="st0" d="M20.8,24.8l-2.1-1l-6.2,3l6,2.9c1.3,0.7,3,0.1,3.6-1.3S22.2,25.4,20.8,24.8z"/>
		</g>
		<g>
			<path class="st0" d="M16.4,18.9L4.1,24.7c-1.4,0.6-1.9,2.3-1.2,3.6c0.6,1.4,2.3,1.9,3.6,1.2l9.7-4.6"/>
			<path class="st0" d="M14.9,25.6l6-2.9c1.4-0.6,1.9-2.3,1.2-3.6c-0.7-1.3-2.3-1.9-3.6-1.2l-2.1,1"/>
		</g>
	</g>
</g>
</svg>
