<?xml version="1.0" encoding="utf-8"?>
<!-- Generator: Adobe Illustrator 21.0.0, SVG Export Plug-In . SVG Version: 6.00 Build 0)  -->
<svg version="1.1" id="Layer_1" xmlns="http://www.w3.org/2000/svg" xmlns:xlink="http://www.w3.org/1999/xlink" x="0px" y="0px"
	 viewBox="0 0 54 50.3" style="enable-background:new 0 0 54 50.3;" xml:space="preserve">
<style type="text/css">
	.st0{fill:#202020;}
</style>
<g>
	<g>
		<path class="st0" d="M52.4,1.7c-0.4-0.2-0.8-0.3-1.2,0c-1.8,0.3-3.7,0.7-5.5,1c-1,0.2-1.8,0.6-2.5,1.3c-3.7,3.7-7.4,7.4-11.1,11.2
			c-2,2-4,4-6.1,6.2c-0.4-1.2-0.9-2.1-1.7-2.7c-3.8-3.3-9.4-1.1-10.5,4.1c-0.5,2.1-0.7,2.3-2.8,2.4c-7.3,0.3-12,6-10.7,13.2
			c0.8,4.3,3.4,7.4,6.9,9.7c7.7,5.2,16.5,1.4,18-7.8c0.3-2,1.1-3.2,3.1-3.7c0.7-0.2,1.3-0.6,1.9-0.9c1.4-0.8,2.1-1.9,2.3-3.5
			c0.1-1.5-0.5-2.3-2-2.3c-0.8,0-1.6,0.1-2.3,0.1c-0.4,0-1,0-1.2-0.5c-0.3-0.6,0.3-0.8,0.6-1.1c6.5-6.5,12.9-12.9,19.4-19.4
			C47,8.4,47.2,8,47.6,8.1c2.3,0.2,3.7-1.3,5.1-2.8C54.5,3.5,54.5,3.2,52.4,1.7z M28.9,31.9c0.3,0,0.8-0.2,1,0.2
			c0.2,0.4-0.1,0.8-0.4,1.1c-0.7,0.7-1.6,1-2.5,1.3c-2.5,0.9-3.8,2.6-3.9,5.2c-0.3,5.6-5.5,8.4-9.7,8.3c-1.3-0.1-3.2-0.6-4.8-1.7
			c-3.7-2.6-6.5-5.8-6.5-10.7c0.1-4.6,3.7-8.2,8.3-8.3c1,0,2,0,3-0.5c1.2-0.6,2-1.6,2.3-2.9c0.2-1.1,0.5-2.1,1.2-3.1
			c1.4-1.7,3.7-2.2,5.5-1c1.8,1.2,2,2.9,0.5,4.5c-0.9,0.9-1.8,1.9-2.7,2.7c-0.9,0.8-1,1.6,0,2.4c0.7,0.6,1.3,1.2,1.9,1.9
			c0.7,0.8,1.4,0.9,2.2,0c0.5-0.6,0.9-0.7,1.5-0.1C26.6,31.9,27.7,32,28.9,31.9z M47.9,5.9C46.7,6,45.8,6.5,45,7.3
			C38.2,14.3,31.3,21.1,24.4,28c-0.2,0.2-0.4,0.4-0.6,0.6c-0.4,0.4-0.7,0.6-1.3,0.1c-0.5-0.5-0.2-0.8,0.2-1.2
			c4.4-4.4,8.7-8.7,13.1-13.1c2.6-2.6,5.2-5.2,7.7-7.9c1.1-1.1,2.2-1.9,3.8-2c1.1-0.1,2.2-0.4,3.7-0.6C50,5.2,49.2,5.9,47.9,5.9z"/>
	</g>
	<path class="st0" d="M19.5,36.1c-0.3-0.2-0.5-0.3-0.7-0.5c-1.1-1.1-2.2-2.3-3.4-3.4c-0.7-0.7-0.3-1,0.2-1.5
		c0.5-0.6,0.9-0.7,1.4-0.1c1.1,1.2,2.3,2.3,3.4,3.4c0.2,0.2,0.7,0.5,0.4,0.9C20.4,35.3,19.9,35.7,19.5,36.1z"/>
	<path class="st0" d="M11.5,34.5c0.6,0,0.8,0.3,1,0.5c1.1,1.1,2.2,2.2,3.3,3.3c0.7,0.6,0.4,1-0.1,1.5c-0.5,0.6-0.9,0.7-1.5,0.1
		c-1.1-1.2-2.2-2.2-3.3-3.3c-0.2-0.2-0.7-0.5-0.4-0.9C10.8,35.2,11.2,34.8,11.5,34.5z"/>
	<path class="st0" d="M15.8,43.9c1,0,1.4,0.3,1.4,1c0,0.6-0.3,1-1,1.1c-0.7,0-1-0.4-1.1-1C15.1,44.2,15.5,43.9,15.8,43.9z"/>
	<path class="st0" d="M20.4,42.8c-0.1,0.6-0.4,1-1.1,0.9c-0.6,0-1-0.4-0.9-1.1c0-0.7,0.4-1,1.1-0.9C20.1,41.7,20.4,42.1,20.4,42.8z"
		/>
	<path class="st0" d="M12.9,44.9c-0.1,0.6-0.4,1-1.1,1c-0.7,0-1-0.5-1-1.1c0-0.6,0.4-1,1.1-1C12.6,43.9,12.8,44.3,12.9,44.9z"/>
	<g>
		<ellipse transform="matrix(0.962 -0.273 0.273 0.962 1.1612 12.2531)" class="st0" cx="44.6" cy="2" rx="0.6" ry="0.6"/>
		<ellipse transform="matrix(0.962 -0.273 0.273 0.962 1.3634 12.7398)" class="st0" cx="46.5" cy="1.5" rx="0.6" ry="0.6"/>
		<ellipse transform="matrix(0.962 -0.273 0.273 0.962 1.5161 13.199)" class="st0" cx="48.2" cy="1.2" rx="0.6" ry="0.6"/>
		<ellipse transform="matrix(0.962 -0.273 0.273 0.962 1.6541 13.6587)" class="st0" cx="49.9" cy="0.9" rx="0.6" ry="0.6"/>
		<ellipse transform="matrix(0.962 -0.273 0.273 0.962 1.8025 14.1336)" class="st0" cx="51.7" cy="0.6" rx="0.6" ry="0.6"/>
	</g>
</g>
</svg>
