<?xml version="1.0" encoding="utf-8"?>
<!-- Generator: Adobe Illustrator 19.2.0, SVG Export Plug-In . SVG Version: 6.00 Build 0)  -->
<svg version="1.1" id="Layer_1" xmlns="http://www.w3.org/2000/svg" xmlns:xlink="http://www.w3.org/1999/xlink" x="0px" y="0px"
	 viewBox="0 0 163 163" style="enable-background:new 0 0 163 163;" xml:space="preserve">
<style type="text/css">
	.st0{opacity:0.1;}
	.st1{fill:#FF9F1C;stroke:#011627;stroke-width:3;stroke-miterlimit:10;}
	.st2{fill:#FFFFFF;stroke:#011627;stroke-width:3;stroke-miterlimit:10;}
	.st3{fill:none;stroke:#011627;stroke-width:3;stroke-linecap:round;stroke-linejoin:round;stroke-miterlimit:10;}
	.st4{fill:#FFFFFF;stroke:#011627;stroke-width:3;stroke-linecap:round;stroke-linejoin:round;stroke-miterlimit:10;}
</style>
<g>
	<circle class="st0" cx="83.5" cy="83.5" r="77.6"/>
	<circle class="st1" cx="79.5" cy="79.5" r="77.6"/>
	<g>
		<path class="st2" d="M54.6,115.5H38.4c-1.4,0-2.6-1.2-2.6-2.6V90.5c0-1.4,1.2-2.6,2.6-2.6h16.2c1.4,0,2.6,1.2,2.6,2.6v22.3
			C57.2,114.3,56.1,115.5,54.6,115.5z"/>
		<path class="st2" d="M55.7,91.3H37.3c-0.8,0-1.5-0.7-1.5-1.5v-6.2c0-0.8,0.7-1.5,1.5-1.5h18.4c0.8,0,1.5,0.7,1.5,1.5v6.2
			C57.2,90.6,56.6,91.3,55.7,91.3z"/>
		<path class="st2" d="M120.6,115.5h-16.2c-1.4,0-2.6-1.2-2.6-2.6V90.5c0-1.4,1.2-2.6,2.6-2.6h16.2c1.4,0,2.6,1.2,2.6,2.6v22.3
			C123.2,114.3,122,115.5,120.6,115.5z"/>
		<path class="st2" d="M121.7,91.3h-18.4c-0.8,0-1.5-0.7-1.5-1.5v-6.2c0-0.8,0.7-1.5,1.5-1.5h18.4c0.8,0,1.5,0.7,1.5,1.5v6.2
			C123.2,90.6,122.5,91.3,121.7,91.3z"/>
		<path class="st2" d="M111.2,127.1H49.4c-2.4,0-4.4-2-4.4-4.4V56c0-2.4,2-4.4,4.4-4.4h61.8c2.4,0,4.4,2,4.4,4.4v66.7
			C115.6,125.2,113.6,127.1,111.2,127.1z"/>
		<path class="st2" d="M105.7,61H54.2c-3,0-5.5-2.5-5.5-5.5V40.6c0-3,2.5-5.5,5.5-5.5h51.5c3,0,5.5,2.5,5.5,5.5v14.9
			C111.2,58.5,108.8,61,105.7,61z"/>
		<rect x="59.8" y="35.2" class="st2" width="5.5" height="25.8"/>
		<rect x="93.6" y="35.2" class="st2" width="5.5" height="25.8"/>
		<path class="st2" d="M106.8,122.7H52.6c-1.3,0-2.3-1-2.3-2.3V89.2c0-1.3,1-2.3,2.3-2.3h54.2c1.3,0,2.3,1,2.3,2.3v31.1
			C109.1,121.6,108.1,122.7,106.8,122.7z"/>
		<path class="st2" d="M109.1,89.3c0,9.6-13.1,17.5-29.3,17.5s-29.3-7.8-29.3-17.5"/>
		<path class="st2" d="M107.7,81.6H51.8c-0.8,0-1.5-0.7-1.5-1.5V68.5c0-0.8,0.7-1.5,1.5-1.5h55.8c0.8,0,1.5,0.7,1.5,1.5v11.6
			C109.1,81,108.5,81.6,107.7,81.6z"/>
		<polyline class="st3" points="51,75.3 53.7,72.7 56.3,75.3 59,72.6 61.7,75.3 64.3,72.7 67,75.3 69.6,72.7 72.3,75.3 74.9,72.6 
			77.6,75.3 80.2,72.7 82.8,75.3 85.4,72.7 87.9,75.2 90.5,72.7 93.1,75.3 95.7,72.7 98.4,75.3 101.1,72.6 103.8,75.3 106.4,72.7 
			109.1,75.4 		"/>
		<rect x="77" y="104.9" class="st4" width="5.5" height="5.7"/>
	</g>
</g>
</svg>
