<?xml version="1.0" encoding="utf-8"?>
<!-- Generator: Adobe Illustrator 19.2.1, SVG Export Plug-In . SVG Version: 6.00 Build 0)  -->
<svg version="1.1" id="Layer_1" xmlns="http://www.w3.org/2000/svg" xmlns:xlink="http://www.w3.org/1999/xlink" x="0px" y="0px"
	 viewBox="0 0 163 163" style="enable-background:new 0 0 163 163;" xml:space="preserve">
<style type="text/css">
	.st0{opacity:0.1;}
	.st1{fill:#603D84;stroke:#011627;stroke-width:3;stroke-miterlimit:10;}
	.st2{fill:#FFFFFF;stroke:#011627;stroke-width:3.0707;stroke-linecap:round;stroke-linejoin:round;stroke-miterlimit:10;}
	.st3{fill:none;stroke:#011627;stroke-width:3.0707;stroke-linecap:round;stroke-linejoin:round;stroke-miterlimit:10;}
	.st4{fill:none;stroke:#011627;stroke-linecap:round;stroke-linejoin:round;stroke-miterlimit:10;stroke-dasharray:1,2;}
	.st5{fill:#FFFFFF;stroke:#011627;stroke-width:2.3579;stroke-linecap:round;stroke-linejoin:round;stroke-miterlimit:10;}
	.st6{fill:#FFFFFF;}
	.st7{fill:#011627;}
</style>
<g>
	<circle class="st0" cx="83" cy="82.7" r="77.6"/>
	<circle class="st1" cx="80" cy="80.3" r="77.6"/>
	<g>
		<g>
			<g>
				<path class="st2" d="M51.3,119.2h-7.9c-0.8,0-1.5-0.7-1.5-1.5V85.1c0-0.8,0.7-1.5,1.5-1.5h7.9c0.8,0,1.5,0.7,1.5,1.5v32.7
					C52.7,118.6,52.1,119.2,51.3,119.2z"/>
				<polygon class="st2" points="67.7,98.4 53.9,78.5 64.8,78.5 47.2,53.1 29.9,78.5 40.6,78.5 27,98.4 				"/>
			</g>
			<polygon class="st2" points="91,75.6 121.1,119.2 61.2,119.2 			"/>
			<path class="st3" d="M91,75.6c0,0,4.4,37.5-29.8,43.6"/>
			<path class="st3" d="M91.4,76.6c0,0-4.4,36.5,29.8,42.6"/>
			<path class="st4" d="M91,75.6c0,0,5.7,35,30.1,43.6"/>
			<path class="st4" d="M91.2,75.6c0,0-4.6,33.8-30,43.6"/>
			<g>
				<path class="st5" d="M104,48.2c0-1.7,0.4-3.3,1-4.7c-3.9,1.8-6.7,5.8-6.7,10.4c0,6.3,5.1,11.4,11.4,11.4c4.6,0,8.6-2.7,10.4-6.7
					c-1.4,0.7-3,1-4.7,1C109.1,59.6,104,54.5,104,48.2z"/>
			</g>
			<line class="st2" x1="91.2" y1="84.9" x2="91.2" y2="119.2"/>
			<g>
				<path class="st6" d="M88.6,45.2c-0.2,0-0.3,0-0.5-0.1c-0.2-0.2-0.4-0.5-0.3-0.8l0.3-1.5L87,41.8c-0.2-0.2-0.3-0.5-0.2-0.8
					c0.1-0.3,0.3-0.5,0.6-0.5l1.5-0.2l0.7-1.4c0.1-0.3,0.4-0.4,0.7-0.4c0.3,0,0.6,0.2,0.7,0.4l0.7,1.4l1.5,0.2
					c0.3,0,0.5,0.2,0.6,0.5c0.1,0.3,0,0.6-0.2,0.8l-1.1,1.1l0.3,1.5c0,0.3-0.1,0.6-0.3,0.8c-0.1,0.1-0.3,0.1-0.5,0.1
					c-0.1,0-0.2,0-0.4-0.1l-1.3-0.7l-1.3,0.7C88.8,45.2,88.7,45.2,88.6,45.2z"/>
				<path class="st7" d="M90.3,39.2l0.9,1.7l1.9,0.3l-1.4,1.3l0.3,1.9l-1.7-0.9l-1.7,0.9l0.3-1.9l-1.4-1.3l1.9-0.3L90.3,39.2
					 M90.3,37.7c-0.6,0-1.1,0.3-1.4,0.9l-0.5,1l-1.1,0.2c-0.6,0.1-1.1,0.5-1.2,1c-0.2,0.6,0,1.2,0.4,1.6l0.8,0.8l-0.2,1.1
					c-0.1,0.6,0.1,1.2,0.6,1.5c0.3,0.2,0.6,0.3,0.9,0.3c0.2,0,0.5-0.1,0.7-0.2l1-0.5l1,0.5c0.2,0.1,0.5,0.2,0.7,0.2
					c0.3,0,0.6-0.1,0.9-0.3c0.5-0.3,0.7-0.9,0.6-1.5l-0.2-1.1l0.8-0.8c0.4-0.4,0.6-1,0.4-1.6c-0.2-0.6-0.7-1-1.2-1l-1.1-0.2l-0.5-1
					C91.4,38,90.9,37.7,90.3,37.7L90.3,37.7z"/>
			</g>
			<g>
				<path class="st6" d="M121.8,47.5c-0.1,0-0.2,0-0.4-0.1l-1.3-0.7l-1.3,0.7c-0.1,0.1-0.2,0.1-0.4,0.1c-0.2,0-0.3,0-0.5-0.1
					c-0.2-0.2-0.4-0.5-0.3-0.8l0.2-1.4l-1-1c-0.2-0.2-0.3-0.5-0.2-0.8c0.1-0.3,0.3-0.5,0.6-0.5l1.4-0.2l0.6-1.3
					c0.1-0.3,0.4-0.4,0.7-0.4s0.6,0.2,0.7,0.4l0.6,1.3l1.4,0.2c0.3,0,0.5,0.2,0.6,0.5c0.1,0.3,0,0.6-0.2,0.8l-1,1l0.2,1.4
					c0,0.3-0.1,0.6-0.3,0.8C122.1,47.4,121.9,47.5,121.8,47.5z"/>
				<path class="st7" d="M120.1,41.7l0.8,1.7l1.8,0.3l-1.3,1.3l0.3,1.8l-1.6-0.9l-1.6,0.9l0.3-1.8l-1.3-1.3l1.8-0.3L120.1,41.7
					 M120.1,40.1c-0.6,0-1.1,0.3-1.4,0.9l-0.5,0.9l-1,0.1c-0.6,0.1-1.1,0.5-1.2,1c-0.2,0.6,0,1.2,0.4,1.6l0.7,0.7l-0.2,1
					c-0.1,0.6,0.1,1.2,0.6,1.5c0.3,0.2,0.6,0.3,0.9,0.3c0.2,0,0.5-0.1,0.7-0.2l0.9-0.5l0.9,0.5c0.2,0.1,0.5,0.2,0.7,0.2
					c0.3,0,0.6-0.1,0.9-0.3c0.5-0.3,0.7-0.9,0.6-1.5l-0.2-1l0.7-0.7c0.4-0.4,0.6-1,0.4-1.6c-0.2-0.6-0.7-1-1.2-1l-1-0.1l-0.5-0.9
					C121.2,40.5,120.7,40.1,120.1,40.1L120.1,40.1z"/>
			</g>
			<g>
				<path class="st6" d="M124.1,77.7c-0.1,0-0.2,0-0.4-0.1l-1.4-0.7l-1.4,0.7c-0.1,0.1-0.2,0.1-0.4,0.1c-0.2,0-0.3,0-0.5-0.1
					c-0.2-0.2-0.4-0.5-0.3-0.8l0.3-1.5l-1.1-1.1c-0.2-0.2-0.3-0.5-0.2-0.8c0.1-0.3,0.3-0.5,0.6-0.5l1.5-0.2l0.7-1.4
					c0.1-0.3,0.4-0.4,0.7-0.4l0,0c0.3,0,0.6,0.2,0.7,0.4l0.7,1.4l1.5,0.2c0.3,0,0.5,0.2,0.6,0.5c0.1,0.3,0,0.6-0.2,0.8l-1.1,1.1
					l0.3,1.5c0,0.3-0.1,0.6-0.3,0.8C124.4,77.7,124.3,77.7,124.1,77.7z"/>
				<path class="st7" d="M122.4,71.7l0.9,1.7l1.9,0.3l-1.4,1.4l0.3,1.9l-1.7-0.9l-1.7,0.9l0.3-1.9l-1.4-1.4l1.9-0.3L122.4,71.7
					 M122.4,70.2c-0.6,0-1.1,0.3-1.4,0.9l-0.5,1l-1.1,0.2c-0.6,0.1-1.1,0.5-1.2,1c-0.2,0.6,0,1.2,0.4,1.6l0.8,0.8l-0.2,1.1
					c-0.1,0.6,0.1,1.2,0.6,1.5c0.3,0.2,0.6,0.3,0.9,0.3c0.2,0,0.5-0.1,0.7-0.2l1-0.5l1,0.5c0.2,0.1,0.5,0.2,0.7,0.2
					c0.3,0,0.6-0.1,0.9-0.3c0.5-0.3,0.7-0.9,0.6-1.5l-0.2-1.1l0.8-0.8c0.4-0.4,0.6-1,0.4-1.6c-0.2-0.6-0.7-1-1.2-1l-1.1-0.2l-0.5-1
					C123.5,70.5,123,70.2,122.4,70.2L122.4,70.2z"/>
			</g>
		</g>
	</g>
</g>
</svg>
