<?xml version="1.0" encoding="utf-8"?>
<!-- Generator: Adobe Illustrator 19.2.0, SVG Export Plug-In . SVG Version: 6.00 Build 0)  -->
<svg version="1.1" id="Layer_1" xmlns="http://www.w3.org/2000/svg" xmlns:xlink="http://www.w3.org/1999/xlink" x="0px" y="0px"
	 viewBox="0 0 161.3 160" style="enable-background:new 0 0 161.3 160;" xml:space="preserve">
<style type="text/css">
	.st0{fill:#603D84;stroke:#011627;stroke-width:3;stroke-miterlimit:10;}
	.st1{fill:#FFFFFF;stroke:#011627;stroke-width:3.0707;stroke-linecap:round;stroke-linejoin:round;stroke-miterlimit:10;}
	.st2{fill:none;stroke:#011627;stroke-width:3.0707;stroke-linecap:round;stroke-linejoin:round;stroke-miterlimit:10;}
	.st3{fill:none;stroke:#011627;stroke-linecap:round;stroke-linejoin:round;stroke-miterlimit:10;stroke-dasharray:1,2;}
	.st4{fill:#FFFFFF;stroke:#011627;stroke-width:2.3579;stroke-linecap:round;stroke-linejoin:round;stroke-miterlimit:10;}
	.st5{fill:#FFFFFF;}
	.st6{fill:#011627;}
</style>
<circle class="st0" cx="80.6" cy="80" r="77.6"/>
<g>
	<g>
		<g>
			<path class="st1" d="M55.8,120H48c-0.8,0-1.5-0.7-1.5-1.5V85.8c0-0.8,0.7-1.5,1.5-1.5h7.9c0.8,0,1.5,0.7,1.5,1.5v32.7
				C57.3,119.4,56.6,120,55.8,120z"/>
			<polygon class="st1" points="72.3,99.2 58.5,79.2 69.3,79.2 51.8,53.9 34.5,79.2 45.2,79.2 31.5,99.2 			"/>
		</g>
		<polygon class="st1" points="95.6,76.4 125.7,119.9 65.8,119.9 		"/>
		<path class="st2" d="M95.6,76.4c0,0,4.4,37.5-29.8,43.6"/>
		<path class="st2" d="M95.9,77.4c0,0-4.4,36.5,29.8,42.6"/>
		<path class="st3" d="M95.6,76.4c0,0,5.7,35,30.1,43.6"/>
		<path class="st3" d="M95.8,76.4c0,0-4.6,33.8-30,43.6"/>
		<g>
			<path class="st4" d="M108.5,49c0-1.7,0.4-3.3,1-4.7c-3.9,1.8-6.7,5.8-6.7,10.4c0,6.3,5.1,11.4,11.4,11.4c4.6,0,8.6-2.7,10.4-6.7
				c-1.4,0.7-3,1-4.7,1C113.6,60.4,108.5,55.3,108.5,49z"/>
		</g>
		<line class="st2" x1="95.8" y1="85.6" x2="95.8" y2="119.9"/>
		<g>
			<path class="st5" d="M96.5,46c-0.1,0-0.2,0-0.4-0.1l-1.3-0.7l-1.3,0.7C93.4,46,93.3,46,93.1,46c-0.2,0-0.3,0-0.5-0.1
				c-0.2-0.2-0.4-0.5-0.3-0.8l0.3-1.5l-1.1-1.1c-0.2-0.2-0.3-0.5-0.2-0.8c0.1-0.3,0.3-0.5,0.6-0.5l1.5-0.2l0.7-1.4
				c0.1-0.3,0.4-0.4,0.7-0.4c0.3,0,0.6,0.2,0.7,0.4l0.7,1.4l1.5,0.2c0.3,0,0.5,0.2,0.6,0.5s0,0.6-0.2,0.8L97,43.6l0.3,1.5
				c0,0.3-0.1,0.6-0.3,0.8C96.9,45.9,96.7,46,96.5,46z"/>
			<path class="st6" d="M94.8,40l0.9,1.7l1.9,0.3l-1.4,1.3l0.3,1.9l-1.7-0.9l-1.7,0.9l0.3-1.9L92.1,42l1.9-0.3L94.8,40 M94.8,38.4
				c-0.6,0-1.1,0.3-1.4,0.9l-0.5,1l-1.1,0.2c-0.6,0.1-1.1,0.5-1.2,1c-0.2,0.6,0,1.2,0.4,1.6l0.8,0.8L91.6,45
				c-0.1,0.6,0.1,1.2,0.6,1.5c0.3,0.2,0.6,0.3,0.9,0.3c0.2,0,0.5-0.1,0.7-0.2l1-0.5l1,0.5c0.2,0.1,0.5,0.2,0.7,0.2
				c0.3,0,0.6-0.1,0.9-0.3c0.5-0.3,0.7-0.9,0.6-1.5l-0.2-1.1l0.8-0.8c0.4-0.4,0.6-1,0.4-1.6s-0.7-1-1.2-1l-1.1-0.2l-0.5-1
				C96,38.8,95.4,38.4,94.8,38.4L94.8,38.4z"/>
		</g>
		<g>
			<path class="st5" d="M126.3,48.2c-0.1,0-0.2,0-0.4-0.1l-1.3-0.7l-1.3,0.7c-0.1,0.1-0.2,0.1-0.4,0.1c-0.2,0-0.3,0-0.5-0.1
				c-0.2-0.2-0.4-0.5-0.3-0.8l0.2-1.4l-1-1c-0.2-0.2-0.3-0.5-0.2-0.8c0.1-0.3,0.3-0.5,0.6-0.5l1.4-0.2l0.6-1.3
				c0.1-0.3,0.4-0.4,0.7-0.4s0.6,0.2,0.7,0.4l0.6,1.3l1.4,0.2c0.3,0,0.5,0.2,0.6,0.5s0,0.6-0.2,0.8l-1,1l0.2,1.4
				C126.7,47.6,126.6,47.9,126.3,48.2C126.6,48.2,126.5,48.2,126.3,48.2z"/>
			<path class="st6" d="M124.7,42.4l0.8,1.7l1.8,0.3l-1.3,1.3l0.3,1.8l-1.6-0.9l-1.6,0.9l0.3-1.8l-1.3-1.3l1.8-0.3L124.7,42.4
				 M124.7,40.9c-0.6,0-1.1,0.3-1.4,0.9l-0.5,0.9l-1,0.1c-0.6,0.1-1.1,0.5-1.2,1c-0.2,0.6,0,1.2,0.4,1.6l0.7,0.7l-0.2,1
				c-0.1,0.6,0.1,1.2,0.6,1.5c0.3,0.2,0.6,0.3,0.9,0.3c0.2,0,0.5-0.1,0.7-0.2l0.9-0.5l0.9,0.5c0.2,0.1,0.5,0.2,0.7,0.2
				c0.3,0,0.6-0.1,0.9-0.3c0.5-0.3,0.7-0.9,0.6-1.5l-0.2-1l0.7-0.7c0.4-0.4,0.6-1,0.4-1.6c-0.2-0.6-0.7-1-1.2-1l-1-0.1l-0.5-0.9
				C125.8,41.2,125.3,40.9,124.7,40.9L124.7,40.9z"/>
		</g>
		<g>
			<path class="st5" d="M128.7,78.5c-0.1,0-0.2,0-0.4-0.1l-1.4-0.7l-1.4,0.7c-0.1,0.1-0.2,0.1-0.4,0.1c-0.2,0-0.3,0-0.5-0.1
				c-0.2-0.2-0.4-0.5-0.3-0.8l0.3-1.5l-1.1-1.1c-0.2-0.2-0.3-0.5-0.2-0.8c0.1-0.3,0.3-0.5,0.6-0.5l1.5-0.2l0.7-1.4
				c0.1-0.3,0.4-0.4,0.7-0.4l0,0c0.3,0,0.6,0.2,0.7,0.4l0.7,1.4l1.5,0.2c0.3,0,0.5,0.2,0.6,0.5s0,0.6-0.2,0.8l-1.1,1.1l0.3,1.5
				c0,0.3-0.1,0.6-0.3,0.8C129,78.5,128.8,78.5,128.7,78.5z"/>
			<path class="st6" d="M127,72.5l0.9,1.7l1.9,0.3l-1.4,1.4l0.3,1.9l-1.7-0.9l-1.7,0.9l0.3-1.9l-1.4-1.4l1.9-0.3L127,72.5 M127,70.9
				c-0.6,0-1.1,0.3-1.4,0.9l-0.5,1L124,73c-0.6,0.1-1.1,0.5-1.2,1c-0.2,0.6,0,1.2,0.4,1.6l0.8,0.8l-0.2,1.1
				c-0.1,0.6,0.1,1.2,0.6,1.5c0.3,0.2,0.6,0.3,0.9,0.3c0.2,0,0.5-0.1,0.7-0.2l1-0.5l1,0.5c0.2,0.1,0.5,0.2,0.7,0.2
				c0.3,0,0.6-0.1,0.9-0.3c0.5-0.3,0.7-0.9,0.6-1.5l-0.2-1.1l0.8-0.8c0.4-0.4,0.6-1,0.4-1.6c-0.2-0.6-0.7-1-1.2-1l-1.1-0.2l-0.5-1
				C128.1,71.3,127.5,70.9,127,70.9L127,70.9z"/>
		</g>
	</g>
</g>
</svg>
