<?xml version="1.0" encoding="utf-8"?>
<!-- Generator: Adobe Illustrator 19.2.0, SVG Export Plug-In . SVG Version: 6.00 Build 0)  -->
<svg version="1.1" id="Layer_1" xmlns="http://www.w3.org/2000/svg" xmlns:xlink="http://www.w3.org/1999/xlink" x="0px" y="0px"
	 viewBox="0 0 161.3 160" style="enable-background:new 0 0 161.3 160;" xml:space="preserve">
<style type="text/css">
	.st0{fill:#E71D36;stroke:#011627;stroke-width:3;stroke-miterlimit:10;}
	.st1{fill:#FFFFFF;stroke:#011627;stroke-width:3.6441;stroke-miterlimit:10;}
	.st2{fill:#FFFFFF;stroke:#011627;stroke-width:3.5408;stroke-miterlimit:10;}
	.st3{fill:none;stroke:#011627;stroke-width:3.5408;stroke-miterlimit:10;}
	.st4{fill:#FFFFFF;stroke:#011627;stroke-width:2.61;stroke-miterlimit:10;}
	.st5{fill:none;stroke:#011627;stroke-width:2;stroke-miterlimit:10;}
</style>
<circle class="st0" cx="80.6" cy="80" r="77.6"/>
<g>
	<path class="st1" d="M107.8,118.6H53.4c-3.4,0-6.1-2.7-6.1-6.1V48.6c0-3.4,2.7-6.1,6.1-6.1h54.4c3.4,0,6.1,2.7,6.1,6.1v63.9
		C113.9,115.8,111.2,118.6,107.8,118.6z"/>
	<path class="st1" d="M47.3,41.5c0-3.1,2.9-5.7,6.5-5.7h53.6c3.6,0,6.5,2.6,6.5,5.7v64.6c0,3.1-2.9,5.7-6.5,5.7H53.8"/>
	<path class="st2" d="M108,104.5H47.3V38.6c0-3.3,2.7-5.9,5.9-5.9H108c3.3,0,5.9,2.7,5.9,5.9v60C113.9,101.9,111.3,104.5,108,104.5z
		"/>
	<line class="st3" x1="59.6" y1="32.7" x2="59.6" y2="104.5"/>
	<rect x="47.3" y="48.6" class="st2" width="66.6" height="20"/>
	
		<rect x="63.2" y="65.5" transform="matrix(-4.155083e-12 1 -1 -4.155083e-12 167.7363 -30.4985)" class="st4" width="71.8" height="6.3"/>
	<polygon class="st2" points="66.7,111.8 66.7,127.2 73.6,120.3 80.6,127.3 80.6,111.8 	"/>
	<line class="st5" x1="99.1" y1="32.7" x2="99.1" y2="104.5"/>
</g>
</svg>
