<?xml version="1.0" encoding="utf-8"?>
<!-- Generator: Adobe Illustrator 19.2.1, SVG Export Plug-In . SVG Version: 6.00 Build 0)  -->
<svg version="1.1" id="Layer_1" xmlns="http://www.w3.org/2000/svg" xmlns:xlink="http://www.w3.org/1999/xlink" x="0px" y="0px"
	 viewBox="0 0 16 16" style="enable-background:new 0 0 16 16;" xml:space="preserve">
<style type="text/css">
	.st0{fill:#EA4C89;}
</style>
<path class="st0" d="M8,16c-4.4,0-8-3.6-8-8s3.6-8,8-8s8,3.6,8,8S12.4,16,8,16z M14.7,9.1c-0.2-0.1-2.1-0.6-4.3-0.3
	c0.9,2.5,1.3,4.5,1.3,4.9C13.4,12.6,14.4,11,14.7,9.1L14.7,9.1z M10.7,14.3c-0.1-0.6-0.5-2.7-1.5-5.2l0,0c-3.9,1.3-5.2,4-5.4,4.3
	C5,14.3,6.4,14.8,8,14.8C8.9,14.8,9.9,14.6,10.7,14.3L10.7,14.3z M2.9,12.6c0.2-0.3,2-3.4,5.6-4.5C8.6,8,8.7,8,8.7,8
	C8.6,7.6,8.4,7.2,8.2,6.8c-3.4,1-6.7,1-7,1l0,0.2C1.2,9.8,1.8,11.4,2.9,12.6L2.9,12.6z M1.3,6.6c0.3,0,3.1,0,6.3-0.8
	c-1.1-2-2.4-3.7-2.5-4C3.2,2.7,1.8,4.5,1.3,6.6L1.3,6.6z M6.4,1.4c0.2,0.3,1.4,1.9,2.5,4c2.4-0.9,3.5-2.3,3.6-2.5
	C11.3,1.8,9.7,1.2,8,1.2C7.4,1.2,6.9,1.2,6.4,1.4L6.4,1.4z M13.3,3.7C13.1,3.9,12,5.4,9.5,6.4c0.2,0.3,0.3,0.7,0.5,1
	C10,7.5,10,7.6,10.1,7.7c2.3-0.3,4.5,0.2,4.8,0.2C14.8,6.3,14.2,4.9,13.3,3.7L13.3,3.7z"/>
</svg>
