<?xml version="1.0" encoding="utf-8"?>
<!-- Generator: Adobe Illustrator 19.2.0, SVG Export Plug-In . SVG Version: 6.00 Build 0)  -->
<svg version="1.1" id="Layer_1" xmlns="http://www.w3.org/2000/svg" xmlns:xlink="http://www.w3.org/1999/xlink" x="0px" y="0px"
	 viewBox="0 0 164 168" style="enable-background:new 0 0 164 168;" xml:space="preserve">
<style type="text/css">
	.st0{opacity:0.1;}
	.st1{fill:#FF9F1C;stroke:#011627;stroke-width:3;stroke-miterlimit:10;}
	.st2{fill:#FFFFFF;stroke:#011627;stroke-width:3;stroke-miterlimit:10;}
	.st3{fill:none;stroke:#011627;stroke-width:3;stroke-linecap:round;stroke-linejoin:round;stroke-miterlimit:10;}
	.st4{fill:#FFFFFF;stroke:#011627;stroke-width:3;stroke-linecap:round;stroke-linejoin:round;stroke-miterlimit:10;}
</style>
<g>
	<circle class="st0" cx="84" cy="86" r="77.6"/>
	<circle class="st1" cx="80" cy="82" r="77.6"/>
	<g>
		<path class="st2" d="M55.1,118H38.9c-1.4,0-2.6-1.2-2.6-2.6V93c0-1.4,1.2-2.6,2.6-2.6h16.2c1.4,0,2.6,1.2,2.6,2.6v22.3
			C57.7,116.8,56.6,118,55.1,118z"/>
		<path class="st2" d="M56.2,93.8H37.8c-0.8,0-1.5-0.7-1.5-1.5v-6.2c0-0.8,0.7-1.5,1.5-1.5h18.4c0.8,0,1.5,0.7,1.5,1.5v6.2
			C57.7,93.1,57.1,93.8,56.2,93.8z"/>
		<path class="st2" d="M121.1,118h-16.2c-1.4,0-2.6-1.2-2.6-2.6V93c0-1.4,1.2-2.6,2.6-2.6h16.2c1.4,0,2.6,1.2,2.6,2.6v22.3
			C123.7,116.8,122.5,118,121.1,118z"/>
		<path class="st2" d="M122.2,93.8h-18.4c-0.8,0-1.5-0.7-1.5-1.5v-6.2c0-0.8,0.7-1.5,1.5-1.5h18.4c0.8,0,1.5,0.7,1.5,1.5v6.2
			C123.7,93.1,123,93.8,122.2,93.8z"/>
		<path class="st2" d="M111.7,129.6H49.9c-2.4,0-4.4-2-4.4-4.4V58.5c0-2.4,2-4.4,4.4-4.4h61.8c2.4,0,4.4,2,4.4,4.4v66.7
			C116.1,127.7,114.1,129.6,111.7,129.6z"/>
		<path class="st2" d="M106.2,63.5H54.7c-3,0-5.5-2.5-5.5-5.5V43.1c0-3,2.5-5.5,5.5-5.5h51.5c3,0,5.5,2.5,5.5,5.5V58
			C111.7,61,109.3,63.5,106.2,63.5z"/>
		<rect x="60.3" y="37.7" class="st2" width="5.5" height="25.8"/>
		<rect x="94.1" y="37.7" class="st2" width="5.5" height="25.8"/>
		<path class="st2" d="M107.3,125.2H53.1c-1.3,0-2.3-1-2.3-2.3V91.7c0-1.3,1-2.3,2.3-2.3h54.2c1.3,0,2.3,1,2.3,2.3v31.1
			C109.6,124.1,108.6,125.2,107.3,125.2z"/>
		<path class="st2" d="M109.6,91.8c0,9.6-13.1,17.5-29.3,17.5s-29.3-7.8-29.3-17.5"/>
		<path class="st2" d="M108.2,84.1H52.3c-0.8,0-1.5-0.7-1.5-1.5V71c0-0.8,0.7-1.5,1.5-1.5h55.8c0.8,0,1.5,0.7,1.5,1.5v11.6
			C109.6,83.5,109,84.1,108.2,84.1z"/>
		<polyline class="st3" points="51.5,77.8 54.2,75.2 56.8,77.8 59.5,75.1 62.2,77.8 64.8,75.2 67.5,77.8 70.1,75.2 72.8,77.8 
			75.4,75.1 78.1,77.8 80.7,75.2 83.3,77.8 85.9,75.2 88.4,77.7 91,75.2 93.6,77.8 96.2,75.2 98.9,77.8 101.6,75.1 104.3,77.8 
			106.9,75.2 109.6,77.9 		"/>
		<rect x="77.5" y="107.4" class="st4" width="5.5" height="5.7"/>
	</g>
</g>
</svg>
